<svg xmlns="http://www.w3.org/2000/svg" width="64" height="64" fill="none" viewBox="0 0 64 64"><path stroke="currentColor" stroke-width="2" d="M63 1H1v62h62z" style="fill:none"/><path stroke="currentColor" stroke-width="2" d="M57 7H7v37h50z" style="fill:none"/><path fill="currentColor" d="M16 58h32v-4l-8-4-2-6H26l-2 6-8 4zm-6-48v6h2v-2.586l7.543 7.543 1.19-1.639L13.413 12H16v-2zm37.408 22.994a6.6 6.6 0 0 1-1.556 1.272L50.586 39H48v2h6v-6h-2v2.586zM27.3 33h-3v-2.94h-6.32v-2.12l6.4-8.94h2.92v8.54h1.62v2.52H27.3zm-3-10.56-3.5 5.1h3.5zm7.573 10.8q-.44 0-.84-.24a1.7 1.7 0 0 1-.64-.62 1.7 1.7 0 0 1-.22-.84q0-.74.5-1.22t1.2-.48 1.2.48.5 1.22q0 .44-.24.84a1.6 1.6 0 0 1-.6.62q-.38.24-.86.24m0-7.68q-.44 0-.84-.22a1.84 1.84 0 0 1-.64-.64 1.7 1.7 0 0 1-.22-.84q0-.74.5-1.22t1.2-.48 1.2.48.5 1.22q0 .44-.24.84a1.73 1.73 0 0 1-.6.64q-.38.22-.86.22m7.991 7.68q-1.7 0-2.86-.54-1.16-.56-1.76-1.58-.58-1.02-.58-2.42h3q0 1.02.52 1.52t1.68.5q1.1 0 1.64-.48.56-.5.56-1.4 0-.94-.56-1.42-.54-.48-1.64-.48h-1.32v-2.28h1.32q.96 0 1.48-.4.52-.42.52-1.28 0-.74-.5-1.22t-1.5-.48q-1.02 0-1.52.46-.48.46-.48 1.36h-3q0-1.38.54-2.34.561-.98 1.68-1.48 1.12-.52 2.78-.52t2.78.5 1.66 1.36q.56.86.56 1.94 0 1.18-.66 2-.64.8-1.72 1.14 1.24.34 1.9 1.2.68.84.68 2.2 0 1.2-.64 2.14-.62.92-1.78 1.46t-2.78.54"/></svg>