<svg xmlns="http://www.w3.org/2000/svg" width="153" height="30" fill="none" viewBox="0 0 153 30"><path fill="currentColor" d="M0 18.88V0h.96v18.88zm1.92 0V0h.96v18.88zm1.92 0V0h2.88v18.88zm5.76 0V0h.96v18.88zm1.92 0V0h2.88v18.88zm-6.176 2.784h1.728q.928 0 1.44.256.544.256.928.768.736.96.736 2.72-.064 1.824-.832 2.752-.768.96-2.4.928h-1.6zm1.536 6.784q2.464 0 2.464-2.976 0-1.504-.544-2.304-.576-.8-1.792-.8h-.864v6.08zm8.495-9.568V0h2.88v18.88zm3.84 0V0h.96v18.88zm1.92 0V0h.96v18.88zm3.84 0V0h.96v18.88zm1.92 0V0h2.88v18.88zm-2.656 8.032h-2.4l-.736 2.176h-.832l2.72-7.552h.096l2.752 7.552h-.864zm-.224-.64-.96-2.816-.992 2.816zm6.735-7.392V0h2.88v18.88zm5.76 0V0h.96v18.88zm1.92 0V0h.96v18.88zm1.92 0V0h.96v18.88zm1.92 0V0h2.88v18.88zm-3.84 10.336q-1.152 0-1.76-.704t-.608-1.984v-4.864h.928v.096q-.096.064-.096.16-.032.065-.032.288v4.32q0 .96.384 1.472.352.512 1.216.512.832 0 1.216-.512t.384-1.504v-4.832h.8v4.832q0 1.376-.64 2.048t-1.792.672m7.695-10.336V0h.96v18.88zm1.92 0V0h.96v18.88zm1.92 0V0h2.88v18.88zm5.76 0V0h.96v18.88zm1.92 0V0h2.88v18.88zm-6.176 2.784h1.728q.928 0 1.44.256.544.256.928.768.736.96.736 2.72-.064 1.824-.832 2.752-.768.96-2.4.928h-1.6zm1.536 6.784q2.464 0 2.464-2.976 0-1.504-.544-2.304-.576-.8-1.792-.8h-.864v6.08zM61.5 18.88V0h.96v18.88zm1.92 0V0h2.88v18.88zm3.84 0V0h.96v18.88zm3.84 0V0h2.88v18.88zm3.84 0V0h.96v18.88zm-7.776 9.504h1.472v-6.016H67.26v-.704h3.68v.704h-1.472v6.016h1.536v.704h-3.84zm9.711-9.504V0h.96v18.88zm3.84 0V0h.96v18.88zm1.92 0V0h2.88v18.88zm3.84 0V0h.96v18.88zm1.92 0V0h2.88v18.88zm-4.32 6.432-1.984-3.648h.896l1.568 2.816 1.536-2.816h.832l-1.888 3.616 2.112 3.808h-.928l-1.664-2.944-1.6 2.944h-.896zm8.175-6.432V0h2.88v18.88zm5.76 0V0h.96v18.88zm1.92 0V0h.96v18.88zm1.92 0V0h2.88v18.88zm3.84 0V0h.96v18.88zm-5.92 10.336a.73.73 0 0 1-.48-.192.73.73 0 0 1-.192-.48q0-.288.192-.48a.73.73 0 0 1 .48-.192q.288 0 .48.192a.6.6 0 0 1 .224.48q0 .255-.224.48a.65.65 0 0 1-.48.192m7.855-10.336V0h2.88v18.88zm3.84 0V0h.96v18.88zm1.92 0V0h2.88v18.88zm3.84 0V0h.96v18.88zm3.84 0V0h.96v18.88zm-5.76 10.336q-1.28 0-1.952-.992-.704-.992-.704-2.816 0-1.76.704-2.784.704-.992 1.952-.992t1.952.992q.704 1.024.704 2.784 0 1.824-.704 2.816-.672.992-1.952.992m0-.736q.864 0 1.312-.768.48-.8.48-2.304 0-1.408-.48-2.24-.48-.8-1.312-.8t-1.312.8q-.48.832-.48 2.24 0 1.504.448 2.304.48.768 1.344.768m7.695-9.6V0h.96v18.88zm1.92 0V0h.96v18.88zm1.92 0V0h2.88v18.88zm3.84 0V0h.96v18.88zm3.84 0V0h2.88v18.88zm-6.208 2.784h.8l3.104 5.504v-5.504h.928v.096q-.096.064-.096.16-.032.065-.032.288v6.88h-.64l-3.296-5.824v5.824h-.768zm10.063-2.784V0h2.88v18.88zm3.84 0V0h.96v18.88zm1.92 0V0h2.88v18.88zm5.76 0V0h.96v18.88zm1.92 0V0h.96v18.88zm-8.032 2.784h4.544v.736h-3.776v2.432h3.136v.768h-3.136v2.752h3.744v.736h-4.512z"/></svg>