<svg xmlns="http://www.w3.org/2000/svg" width="64" height="64" fill="none" viewBox="0 0 64 64"><path stroke="currentColor" stroke-width="2" d="M63 1H1v62h62z" style="fill:none"/><path stroke="currentColor" stroke-linecap="square" stroke-miterlimit="10" stroke-width="2" d="M32 57c13.807 0 25-11.193 25-25S45.807 7 32 7 7 18.193 7 32s11.193 25 25 25Z" style="fill:none"/><path fill="currentColor" d="M19.328 14A22 22 0 0 0 14 19.328v25.016L44.344 14zM50 19.656 38.813 30.844a5.6 5.6 0 0 1 1.15-.422l1.059-.133c2.047-.046 3.305.493 4.25 1.55.273.27.473.54.878 1.17-1.081.674-1.081.674-2.632 1.688-.34-.72-.878-1.17-1.463-1.35-.9-.27-2.049.022-2.274.99-.088.293-.066.563.07 1.057.365.833 1.592 1.194 2.696 1.712 3.172 1.286 4.241 2.666 4.504 4.308l-.069-.1c.25 1.418-.067 2.34-.111 2.475-1.172 4.005-7.697 4.14-10.307 1.506-.54-.63-.9-.944-1.214-1.664l2.744-1.576c.742 1.125 1.416 1.734 2.633 2.004 1.644.202 3.309-.36 2.949-2.116-.383-1.441-3.377-1.776-5.424-3.306-1.767-1.191-2.38-3.824-1.46-5.774l-3.216 3.217c.001 1.274.002 2.547-.006 3.819.007 1.913.17 3.624-.596 5.019-.53 1.08-1.542 1.778-2.716 2.117-1.805.405-3.528.158-4.81-.607a4.7 4.7 0 0 1-1.188-1.031L19.656 50h25.016A22 22 0 0 0 50 44.672zM30.191 39.465l-3.603 3.603c.278.42.566.735 1.047.973.579.181 1.854.313 2.35-.72.288-.5.213-2.099.206-3.856"/><path stroke="currentColor" stroke-linecap="square" stroke-miterlimit="10" stroke-width="4" d="M48 16 16 48"/></svg>