<svg xmlns="http://www.w3.org/2000/svg" width="64" height="64" fill="none" viewBox="0 0 64 64"><path stroke="currentColor" stroke-width="2" d="M63 1H1v62h62z" style="fill:none"/><path fill="currentColor" d="m8.804 29 .68-3.64h-1.68v-2.12h2.06l.46-2.48h-1.74v-2.12h2.14l.68-3.64h2.68l-.68 3.64h2.24l.68-3.64h2.68l-.68 3.64h1.68v2.12h-2.08l-.46 2.48h1.76v2.12h-2.14l-.68 3.64h-2.68l.68-3.64h-2.24l-.68 3.64zm3.74-5.76h2.24l.46-2.48h-2.24zm12.433 8.16v-2.22q-2.22-.26-3.34-1.34-1.1-1.1-1.14-2.84h3.6q.16.76.7 1.12.54.34 1.6.34 1.14 0 1.7-.32.58-.32.58-.98 0-.54-.38-.86-.36-.32-1.12-.54t-1.82-.46q-1.38-.32-2.38-.82-1-.52-1.54-1.38t-.54-2.22q0-1.68 1.08-2.72t3-1.3V13h2.82v1.86q2.04.24 3.06 1.26t1.14 2.68h-3.6q-.12-.64-.58-.94-.46-.32-1.42-.32-1.06 0-1.48.34t-.42.88q0 .74.76 1.08.78.34 2.24.62 1.08.22 1.96.54.9.32 1.52.82a3.3 3.3 0 0 1 .98 1.24q.34.72.34 1.78 0 1.82-1.18 2.94-1.18 1.1-3.32 1.38v2.24zm8.779-7.22V15h3.08v9.18zm1.54 5.08q-.52 0-.96-.26a1.85 1.85 0 0 1-.7-.66 2.05 2.05 0 0 1-.24-1q0-.78.54-1.32.56-.56 1.36-.56t1.36.56q.56.54.56 1.32 0 .56-.26 1-.26.42-.7.66-.42.26-.96.26m12.286 4q-2.06 0-3.76-.62-1.68-.6-2.9-1.8-1.2-1.2-1.86-2.94-.66-1.76-.66-4.04 0-2.16.68-3.86t1.88-2.86a8.1 8.1 0 0 1 2.8-1.8 9.4 9.4 0 0 1 3.44-.62q2.04 0 3.68.56 1.64.54 2.78 1.62t1.74 2.66.6 3.64q0 1.96-.58 3.22-.56 1.26-1.54 1.86t-2.22.6a3.6 3.6 0 0 1-1.58-.34q-.68-.34-.96-1.36-.4.84-1.06 1.28t-1.7.44q-1.7 0-2.7-1.14-1-1.16-1-3.46v-.78q0-2.32.94-3.4.96-1.08 2.58-1.08.72 0 1.2.18t.78.48q.3.28.46.62v-1.14h2.46v5.6q0 .96.2 1.32.2.34.78.34.52 0 .88-.28.38-.3.56-1 .2-.7.2-1.96 0-1.72-.48-2.92-.48-1.22-1.36-1.98-.86-.78-2.06-1.14-1.18-.36-2.6-.36a7.3 7.3 0 0 0-2.56.44 5.7 5.7 0 0 0-2.06 1.32q-.88.88-1.38 2.2-.48 1.32-.48 3.1 0 2.44.86 4.08.86 1.62 2.4 2.42 1.54.82 3.6.82 1.48 0 2.56-.34 1.1-.34 1.86-.78v2.24a8.2 8.2 0 0 1-1.86.68q-1.04.28-2.56.28m-.66-6.8q.74 0 1.16-.48.42-.5.42-1.44v-1.16q0-1-.42-1.46t-1.18-.46q-.72 0-1.1.5t-.38 1.7v.62q0 1.16.38 1.68.4.5 1.12.5M12.693 49V35h3.6v11.04h6V49zm16.51.26q-1.379 0-2.62-.4a5.9 5.9 0 0 1-2.16-1.26q-.94-.86-1.48-2.22-.54-1.38-.54-3.28v-.4q0-1.84.54-3.16t1.48-2.16a6 6 0 0 1 2.16-1.24q1.241-.4 2.62-.4a8.4 8.4 0 0 1 2.62.4 6 6 0 0 1 2.16 1.24q.941.84 1.48 2.16.54 1.32.54 3.16v.4q0 1.9-.54 3.28-.539 1.36-1.48 2.22a5.9 5.9 0 0 1-2.16 1.26 8.4 8.4 0 0 1-2.62.4m-.02-3q.822 0 1.52-.36.701-.38 1.12-1.26.44-.9.44-2.54v-.4q0-1.56-.44-2.42-.419-.86-1.12-1.2a3.4 3.4 0 0 0-1.52-.34q-.779 0-1.48.34-.699.34-1.14 1.2-.439.86-.44 2.42v.4q.001 1.64.44 2.54.441.88 1.14 1.26.701.36 1.48.36M37.295 49V35h3.6v11.04h6V49zm10.667-4.82V35h3.08v9.18zm1.54 5.08q-.52 0-.96-.26a1.85 1.85 0 0 1-.7-.66 2.05 2.05 0 0 1-.24-1q0-.78.54-1.32.56-.56 1.36-.56t1.36.56q.56.54.56 1.32 0 .56-.26 1-.26.42-.7.66-.42.26-.96.26"/></svg>