<svg xmlns="http://www.w3.org/2000/svg" width="136" height="64" fill="none" viewBox="0 0 136 64"><path stroke="currentColor" stroke-linecap="square" stroke-miterlimit="10" stroke-width="2" d="M135 1H1v62h134z" style="fill:none"/><path fill="currentColor" d="M33 42h-4v4h4zm-4-19h4l-1 16h-2z"/><path stroke="currentColor" stroke-linecap="square" stroke-miterlimit="10" stroke-width="2" d="M9.724 50H52.06L30.893 12.955z" style="fill:none"/><path fill="currentColor" d="m52.2 24-2.88-11.2h2.496l1.744 7.904 2.16-7.904h2.24l2.208 7.936 1.888-7.936h2.304L61.464 24H59.08l-2.32-8-2.176 8zm11.05 0 4.16-11.2h2.385L73.97 24h-2.528l-.864-2.288h-4.144L65.587 24zm3.92-4.272h2.689l-1.344-3.888zM74.619 24V12.8h4.528q1.408 0 2.336.448.945.448 1.424 1.264.48.8.48 1.888 0 1.152-.592 2.016-.593.848-1.808 1.232L83.706 24h-2.768l-2.352-4.096h-1.584V24zm2.384-5.984h1.68q1.328 0 1.824-.4.496-.416.496-1.216t-.496-1.2q-.496-.416-1.824-.416h-1.68zM84.865 24V12.8h2.256l4.944 7.2v-7.2h2.368V24h-2.256l-4.944-7.2V24zm11.516 0V12.8h2.384V24zm4.321 0V12.8h2.256l4.944 7.2v-7.2h2.368V24h-2.256l-4.944-7.2V24zm16.061.192q-1.488 0-2.672-.576-1.169-.592-1.856-1.84-.672-1.264-.672-3.296v-.32q0-1.455.4-2.512.415-1.056 1.12-1.728a4.6 4.6 0 0 1 1.648-.992 6 6 0 0 1 1.952-.32q.96 0 1.744.24.8.225 1.408.688.608.448 1.008 1.152.4.688.56 1.616h-2.496q-.225-.672-.576-1.024a1.8 1.8 0 0 0-.784-.496 2.6 2.6 0 0 0-.864-.144q-.705 0-1.312.336-.593.336-.96 1.104-.352.768-.352 2.08v.32q0 1.04.224 1.744t.608 1.136q.4.416.88.608t.992.192q.687 0 1.248-.24t.912-.752q.367-.528.432-1.344h-2.272V18.16h4.56v.64q0 1.392-.352 2.416-.336 1.008-.992 1.68a4 4 0 0 1-1.536.976q-.897.32-2 .32m7.258 0q-.353 0-.672-.192a1.34 1.34 0 0 1-.512-.496 1.4 1.4 0 0 1-.176-.672q0-.592.4-.976.399-.384.96-.384t.96.384q.4.384.4.976 0 .352-.192.672a1.27 1.27 0 0 1-.48.496 1.26 1.26 0 0 1-.688.192m0-6.144q-.353 0-.672-.176a1.5 1.5 0 0 1-.512-.512 1.4 1.4 0 0 1-.176-.672q0-.592.4-.976.399-.384.96-.384t.96.384q.4.384.4.976 0 .352-.192.672a1.4 1.4 0 0 1-.48.512 1.35 1.35 0 0 1-.688.176M65.33 35.096q-.728 0-1.305-.288a2.1 2.1 0 0 1-.896-.92q-.32-.631-.32-1.648v-.16q0-.736.192-1.256.192-.528.536-.864.352-.337.808-.496a3 3 0 0 1 .984-.16q.472 0 .88.12.417.113.736.344a1.7 1.7 0 0 1 .512.6q.2.368.232.864h-1.248q-.087-.473-.384-.696a1.17 1.17 0 0 0-.728-.224q-.336 0-.624.168-.288.16-.472.544-.176.384-.176 1.056v.16q0 .528.112.888.113.352.296.568.184.208.408.304.225.088.456.088.456 0 .752-.232.297-.24.36-.688h1.248a2.4 2.4 0 0 1-.232.896 1.7 1.7 0 0 1-.504.6q-.312.225-.728.328t-.896.104m5.313 0q-.528 0-1-.16a2.4 2.4 0 0 1-.848-.496 2.4 2.4 0 0 1-.584-.888q-.208-.544-.208-1.312v-.16q0-.736.208-1.256.216-.528.584-.864.376-.337.848-.496.472-.16 1-.16.529 0 1 .16.472.16.84.496.375.336.584.864.216.52.216 1.256v.16q0 .769-.216 1.312a2.3 2.3 0 0 1-.584.888q-.368.337-.84.496-.471.16-1 .16m0-1.008q.368 0 .68-.168.32-.176.512-.576.2-.408.2-1.104v-.16q0-.656-.2-1.04-.192-.392-.512-.56a1.4 1.4 0 0 0-.68-.168q-.36 0-.68.168t-.52.56q-.192.384-.192 1.04v.16q0 .696.192 1.104.2.4.52.576.32.168.68.168M73.92 35v-5.6h1.128L77.52 33v-3.6h1.184V35h-1.128l-2.472-3.6V35zm6.99 0v-4.608h-1.8V29.4h4.793v.992h-1.8V35zm2.275 0 2.08-5.6h1.192l2.088 5.6h-1.264l-.432-1.144h-2.072L84.354 35zm1.96-2.136h1.344l-.672-1.944zM88.95 35v-5.6h1.192V35zm2.16 0v-5.6h1.129L94.71 33v-3.6h1.185V35h-1.129l-2.472-3.6V35zm7.67.096q-.743 0-1.24-.208-.495-.208-.76-.576a1.66 1.66 0 0 1-.28-.872h1.2a.77.77 0 0 0 .289.48q.231.168.792.168.576 0 .824-.152a.5.5 0 0 0 .256-.448.53.53 0 0 0-.152-.392q-.144-.152-.448-.256a5 5 0 0 0-.792-.208 4 4 0 0 1-.976-.312 1.5 1.5 0 0 1-.624-.544q-.208-.344-.208-.872 0-.488.256-.84.255-.36.736-.56.48-.2 1.128-.2.704 0 1.152.2.456.192.688.544.24.352.28.832h-1.192a.66.66 0 0 0-.264-.424q-.2-.144-.664-.144-.472 0-.696.152a.47.47 0 0 0-.224.408q0 .311.304.488.312.176.976.304.456.088.808.216.36.127.608.336.247.2.376.488.128.288.128.696 0 .512-.272.896-.264.384-.776.592-.504.208-1.232.208m4.482-.096v-5.6h1.192v2.224h2.4V29.4h1.192V35h-1.192v-2.384h-2.4V35zm5.758 0v-5.6h1.192V35zm4.513.096q-.745 0-1.336-.288a2.17 2.17 0 0 1-.928-.92q-.336-.631-.336-1.648v-.16q0-.728.2-1.256.207-.528.56-.864.36-.337.824-.496.463-.16.976-.16.48 0 .872.12.4.113.704.344.303.224.504.576.2.345.28.808h-1.248a1.3 1.3 0 0 0-.288-.512.9.9 0 0 0-.392-.248 1.3 1.3 0 0 0-.432-.072q-.353 0-.656.168-.297.168-.48.552-.177.384-.176 1.04v.16q0 .52.112.872t.304.568a1.25 1.25 0 0 0 .936.4q.343 0 .624-.12a1.05 1.05 0 0 0 .456-.376q.183-.264.216-.672h-1.136v-.832h2.28v.32q0 .696-.176 1.208a2.2 2.2 0 0 1-.496.84q-.321.328-.768.488-.448.16-1 .16M116.57 35v-5.6h1.192v2.224h2.4V29.4h1.192V35h-1.192v-2.384h-2.4V35zm-39.767 8 2.08-5.6h1.192l2.088 5.6H80.9l-.432-1.144h-2.072L77.971 43zm1.96-2.136h1.344l-.672-1.944zM82.487 43v-5.6h1.192l1.704 3.152L87.08 37.4h1.16V43h-1.2v-3.56l-1.328 2.44H85l-1.32-2.44V43zm9.023.096q-.528 0-1-.16a2.4 2.4 0 0 1-.848-.496 2.4 2.4 0 0 1-.584-.888q-.207-.544-.208-1.312v-.16q0-.736.208-1.256.216-.528.584-.864.377-.336.848-.496.472-.16 1-.16.529 0 1 .16.472.16.84.496.377.336.584.864.216.52.216 1.256v.16q0 .769-.216 1.312a2.3 2.3 0 0 1-.584.888q-.368.337-.84.496-.471.16-1 .16m0-1.008q.368 0 .68-.168.32-.176.512-.576.2-.408.2-1.104v-.16q0-.656-.2-1.04-.191-.392-.512-.56a1.4 1.4 0 0 0-.68-.168q-.36 0-.68.168t-.52.56q-.192.384-.192 1.04v.16q0 .696.192 1.104.2.4.52.576.32.168.68.168m5.55 1.008q-.72 0-1.247-.256a1.82 1.82 0 0 1-.816-.776q-.288-.52-.288-1.304V37.4H95.9v3.248q0 .72.28 1.08t.88.36.88-.36.28-1.072V37.4h1.192v3.36q0 .784-.288 1.304a1.78 1.78 0 0 1-.808.776q-.528.256-1.256.256m3.172-.096v-5.6h1.128l2.472 3.6v-3.6h1.184V43h-1.128l-2.472-3.6V43zm6.991 0v-4.608h-1.8V37.4h4.792v.992h-1.8V43zm7.389.096q-.528 0-1-.16a2.4 2.4 0 0 1-.848-.496 2.4 2.4 0 0 1-.584-.888q-.208-.544-.208-1.312v-.16q0-.736.208-1.256a2.4 2.4 0 0 1 .584-.864q.376-.336.848-.496t1-.16 1 .16.84.496q.376.336.584.864.216.52.216 1.256v.16q0 .769-.216 1.312a2.3 2.3 0 0 1-.584.888q-.368.337-.84.496-.472.16-1 .16m0-1.008q.368 0 .68-.168.32-.176.512-.576.2-.408.2-1.104v-.16q0-.656-.2-1.04-.192-.392-.512-.56a1.4 1.4 0 0 0-.68-.168q-.36 0-.68.168t-.52.56q-.192.384-.192 1.04v.16q0 .696.192 1.104.2.4.52.576.32.168.68.168m3.278.912v-5.6h3.832v.992h-2.64V39.8h2.4v.96h-2.4V43zm-31.316 8.096q-.744 0-1.24-.208t-.76-.576a1.66 1.66 0 0 1-.28-.872h1.2a.77.77 0 0 0 .288.48q.232.168.792.168.576 0 .824-.152a.5.5 0 0 0 .256-.448.53.53 0 0 0-.152-.392q-.144-.152-.448-.256a5 5 0 0 0-.792-.208 4 4 0 0 1-.976-.312 1.5 1.5 0 0 1-.624-.544q-.208-.344-.208-.872 0-.487.256-.84.256-.36.736-.56t1.128-.2q.705 0 1.152.2.457.193.688.544a1.7 1.7 0 0 1 .28.832h-1.192a.66.66 0 0 0-.264-.424q-.2-.144-.664-.144-.471 0-.696.152a.47.47 0 0 0-.224.408q0 .312.304.488.313.176.976.304.456.088.808.216.36.128.608.336.249.2.376.488.128.288.128.696 0 .512-.272.896-.264.384-.776.592-.504.208-1.232.208M89.536 51v-5.6h1.192V51zm2.16 0v-5.6h1.192v4.608h2.56V51zm4.163 0v-5.6h1.192v4.608h2.56V51zm4.242 0v-5.6h1.192V51zm2.161 0v-5.6h1.128l2.472 3.6v-3.6h1.184V51h-1.128l-2.472-3.6V51zm5.678 0v-5.6h3.904v.992h-2.704v1.248h2.464v.96h-2.464v1.408h2.704V51zm6.553.096q-.744 0-1.24-.208t-.76-.576a1.66 1.66 0 0 1-.28-.872h1.2a.77.77 0 0 0 .288.48q.232.168.792.168.576 0 .824-.152a.5.5 0 0 0 .256-.448q0-.24-.152-.392-.144-.152-.448-.256a5.4 5.4 0 0 0-.792-.208 4 4 0 0 1-.976-.312 1.5 1.5 0 0 1-.624-.544q-.208-.344-.208-.872 0-.487.256-.84.256-.36.736-.56t1.128-.2q.703 0 1.152.2.456.193.688.544.24.352.28.832h-1.192a.66.66 0 0 0-.264-.424q-.2-.144-.664-.144-.472 0-.696.152a.47.47 0 0 0-.224.408q0 .312.304.488.312.176.976.304.456.088.808.216.36.128.608.336.248.2.376.488t.128.696q0 .512-.272.896-.264.384-.776.592-.504.208-1.232.208m4.874 0q-.744 0-1.24-.208t-.76-.576a1.66 1.66 0 0 1-.28-.872h1.2a.76.76 0 0 0 .288.48q.231.168.792.168.576 0 .824-.152a.5.5 0 0 0 .256-.448q0-.24-.152-.392-.145-.152-.448-.256a5.4 5.4 0 0 0-.792-.208 4 4 0 0 1-.976-.312 1.5 1.5 0 0 1-.624-.544q-.208-.344-.208-.872 0-.487.256-.84.255-.36.736-.56.48-.2 1.128-.2.703 0 1.152.2.456.193.688.544.24.352.28.832h-1.192a.66.66 0 0 0-.264-.424q-.2-.144-.664-.144-.472 0-.696.152a.47.47 0 0 0-.224.408q0 .312.304.488.312.176.976.304.456.088.808.216.36.128.608.336.247.2.376.488.128.288.128.696 0 .512-.272.896-.264.384-.776.592-.504.208-1.232.208"/></svg>