<svg xmlns="http://www.w3.org/2000/svg" width="64" height="64" fill="none" viewBox="0 0 64 64"><path stroke="currentColor" stroke-width="2" d="M63 1H1v62h62z" style="fill:none"/><path fill="currentColor" d="M18.2 21 15.32 9.8h2.496l1.744 7.904L21.72 9.8h2.24l2.208 7.936L28.056 9.8h2.304L27.464 21H25.08l-2.32-8-2.176 8zm12.952 0V9.8h7.808v1.984h-5.408v2.496h4.928v1.92h-4.928v2.816h5.408V21zm9.122 0V9.8h4.784q1.889 0 2.768.8.896.784.896 2.192 0 .864-.432 1.488a2.34 2.34 0 0 1-1.136.88q.96.224 1.504.912.544.672.544 1.76 0 .96-.4 1.68-.4.704-1.264 1.104-.864.384-2.272.384zm2.384-1.824h2.176q1.12 0 1.552-.384t.432-1.136-.432-1.168q-.416-.432-1.568-.432h-2.16zm0-4.752h1.92q.976 0 1.36-.384.4-.384.4-1.04 0-.672-.384-1.024-.385-.352-1.36-.352h-1.936zM10.8 53.16V48.2h6.4V31.24l-6.4 4.56v-5.84l6.76-4.8h5.64V48.2h5.2v4.96zm32.356 0v-5.92h-13.2v-4.16l13.2-17.92h6v17.12h3.16v4.96h-3.16v5.92zm-7.6-10.88h7.6V31.84z"/></svg>