<svg xmlns="http://www.w3.org/2000/svg" width="128" height="128"><linearGradient id="a" x1="64" x2="64" y1="3" y2="123" gradientUnits="userSpaceOnUse"><stop offset="0" stop-color="#c0bfbc"/><stop offset="1" stop-color="#f6f5f4"/></linearGradient><linearGradient id="b" x1="64" x2="64" y1="13" y2="113" gradientUnits="userSpaceOnUse"><stop offset="0" stop-color="#fff"/><stop offset="1" stop-color="#c0bfbc"/></linearGradient><linearGradient id="c" x1="72" x2="128" y1="128" y2="128" gradientUnits="userSpaceOnUse"><stop offset="0" stop-color="#241f31"/><stop offset=".071" stop-color="#5e5c64"/><stop offset=".143" stop-color="#3d3846"/><stop offset=".857" stop-color="#241f31"/><stop offset=".929" stop-color="#5e5c64"/><stop offset="1" stop-color="#241f31"/></linearGradient><path fill="#d5d3cf" d="M124 65c0 33.137-26.863 60-60 60S4 98.137 4 65 30.863 5 64 5s60 26.863 60 60m0 0"/><path fill="url(#a)" d="M124 63c0 33.137-26.863 60-60 60S4 96.137 4 63 30.863 3 64 3s60 26.863 60 60m0 0"/><path fill="#3584e4" d="M118 63c0 29.824-24.176 54-54 54S10 92.824 10 63 34.176 9 64 9s54 24.176 54 54m0 0"/><path fill="url(#b)" d="M114 63c0 27.613-22.387 50-50 50S14 90.613 14 63s22.387-50 50-50 50 22.387 50 50m0 0"/><path fill="#9a9996" d="M64 113c-27.613 0-50-22.387-50-50q.029-.5.074-1c.543 27.195 22.727 48.965 49.926 49 27.027-.008 49.16-21.496 49.96-48.512q.024.256.04.512c0 27.613-22.387 50-50 50m0 0"/><path fill="#3584e4" d="M64 31c-2.203 0-4 1.797-4 4v20c0 2.203 1.797 4 4 4s4-1.797 4-4V35c0-2.203-1.797-4-4-4m-12.547 7.266a3.8 3.8 0 0 0-1.469.5C39.047 45.094 33.687 58.03 36.954 70.25c3.28 12.203 14.374 20.734 27 20.75 12.64.016 23.765-8.484 27.062-20.672 3.312-12.203-2-25.156-12.922-31.516a3.975 3.975 0 0 0-5.469 1.438c-.531.906-.687 2-.422 3.031a4 4 0 0 0 1.86 2.438 20 20 0 0 1 9.25 22.515A19.985 19.985 0 0 1 63.984 83c-9.062-.016-16.953-6.078-19.296-14.828s1.453-17.953 9.296-22.484a3.99 3.99 0 0 0 1.453-5.454 3.92 3.92 0 0 0-2.421-1.859 4 4 0 0 0-1.563-.11m0 0"/><path fill="#9a9996" d="M64 31c-2.203 0-4 1.797-4 4v2c0-2.203 1.797-4 4-4s4 1.797 4 4v-2c0-2.203-1.797-4-4-4m-11.754 7.242a4.5 4.5 0 0 0-.793.024 3.8 3.8 0 0 0-1.469.5C40.906 44.02 35.68 53.824 36.027 63.992c.352-9.437 5.477-18.32 13.957-23.226a3.8 3.8 0 0 1 1.47-.5 4 4 0 0 1 1.562.109 3.92 3.92 0 0 1 2.422 1.86c.19.331.312.68.402 1.03a3.97 3.97 0 0 0-.403-3.03 3.92 3.92 0 0 0-2.421-1.86 3.6 3.6 0 0 0-.77-.129zm23.57.024a3.97 3.97 0 0 0-3.191 1.984c-.531.906-.687 2-.422 3.031l.012.028a3.9 3.9 0 0 1 .41-1.059 3.975 3.975 0 0 1 5.469-1.437c8.441 4.914 13.527 13.773 13.875 23.175.355-10.133-4.836-19.914-13.875-25.175a3.95 3.95 0 0 0-2.274-.547zM44.043 63.918A19.98 19.98 0 0 0 63.984 85a19.985 19.985 0 0 0 19.329-14.766 20 20 0 0 0 .656-6.293 20 20 0 0 1-.656 4.293A19.985 19.985 0 0 1 63.984 83a19.98 19.98 0 0 1-19.296-14.828 20 20 0 0 1-.645-4.254m0 0"/><path fill="#fff" fill-opacity=".2" d="M91.016 68.328C87.719 80.516 76.594 89.016 63.953 89c-12.625-.016-23.719-8.547-27-20.75-.86-3.223-2.285-6.555 0 2 3.281 12.203 14.375 20.734 27 20.75 12.64.016 23.766-8.484 27.063-20.672 2.34-8.621.89-5.285 0-2m0 0"/><path fill="url(#c)" d="M80 80h40a8 8 0 0 1 8 8v32a8 8 0 0 1-8 8H80a8 8 0 0 1-8-8V88a8 8 0 0 1 8-8m0 0"/><path fill="#3d3846" d="M80 68h40a8 8 0 0 1 8 8v32a8 8 0 0 1-8 8H80a8 8 0 0 1-8-8V76a8 8 0 0 1 8-8m0 0"/><path fill="#191622" d="M80 76v24h4v4h4v4h24v-4h4v-4h4V76zm0 0"/><path fill="#fff" fill-opacity=".102" d="M80 100v2h4v-2zm36 0v2h4v-2zm-32 4v2h4v-2zm28 0v2h4v-2zm-24 4v2h24v-2zm0 0"/><path fill="#77767b" d="M82 78v8h2v-8zm4 0v8h2v-8zm4 0v8h2v-8zm4 0v8h2v-8zm4 0v8h2v-8zm4 0v8h2v-8zm4 0v8h2v-8zm4 0v8h2v-8zm4 0v8h2v-8zm4 0v8h2v-8zm0 0"/><path fill="#c0bfbc" d="M82 76v8h2v-8zm4 0v8h2v-8zm4 0v8h2v-8zm4 0v8h2v-8zm4 0v8h2v-8zm4 0v8h2v-8zm4 0v8h2v-8zm4 0v8h2v-8zm4 0v8h2v-8zm4 0v8h2v-8zm0 0"/><path fill="#fff" fill-opacity=".102" d="M72 108v2c0 4.434 3.566 8 8 8h40c4.434 0 8-3.566 8-8v-2c0 4.434-3.566 8-8 8H80a7.98 7.98 0 0 1-8-8m0 0"/></svg>