<svg xmlns="http://www.w3.org/2000/svg" width="128" height="128"><linearGradient id="a" x1="8" x2="120" y1="114" y2="114" gradientUnits="userSpaceOnUse"><stop offset="0" stop-color="#986a44"/><stop offset=".036" stop-color="#cdab8f"/><stop offset=".071" stop-color="#b5835a"/><stop offset=".929" stop-color="#cdab8f"/><stop offset=".964" stop-color="#dcc4b2"/><stop offset="1" stop-color="#986a44"/></linearGradient><linearGradient id="b" x1="64" x2="120" y1="105" y2="105" gradientUnits="userSpaceOnUse"><stop offset="0" stop-color="#63452c" stop-opacity="0"/><stop offset="1" stop-color="#63452c" stop-opacity=".2"/></linearGradient><linearGradient id="c" x1="64" x2="120" y1="64" y2="64" gradientUnits="userSpaceOnUse"><stop offset="0" stop-color="#cdab8f"/><stop offset=".143" stop-color="#ecdfd5"/><stop offset="1" stop-color="#ecdfd5"/></linearGradient><linearGradient id="d" x1="8" x2="64" y1="64" y2="64" gradientUnits="userSpaceOnUse"><stop offset="0" stop-color="#ecdfd5"/><stop offset=".857" stop-color="#ecdfd5"/><stop offset="1" stop-color="#cdab8f"/></linearGradient><path fill="#26a269" d="M14 40h100c5.523 0 10 4.477 10 10v60c0 5.523-4.477 10-10 10H14c-5.523 0-10-4.477-10-10V50c0-5.523 4.477-10 10-10m0 0"/><path fill="#2ec27e" d="M14 38h100c5.523 0 10 4.477 10 10v60c0 5.523-4.477 10-10 10H14c-5.523 0-10-4.477-10-10V48c0-5.523 4.477-10 10-10m0 0"/><path fill="#fff" fill-opacity=".2" d="M4 106v2c0 5.54 4.46 10 10 10h100c5.54 0 10-4.46 10-10v-2c0 5.54-4.46 10-10 10H14c-5.54 0-10-4.46-10-10m0 0"/><path fill="url(#a)" d="M16 38h96a8 8 0 0 1 8 8v60a8 8 0 0 1-8 8H16a8 8 0 0 1-8-8V46a8 8 0 0 1 8-8m0 0"/><path fill="url(#b)" d="M8 104v2c0 4.434 3.566 8 8 8h96c4.434 0 8-3.566 8-8v-2c0 4.434-3.566 8-8 8H16a7.98 7.98 0 0 1-8-8m0 0"/><path fill="url(#b)" d="M8 100v2c0 4.434 3.566 8 8 8h96c4.434 0 8-3.566 8-8v-2c0 4.434-3.566 8-8 8H16a7.98 7.98 0 0 1-8-8m0 0"/><path fill="url(#b)" d="M8 96v2c0 4.434 3.566 8 8 8h96c4.434 0 8-3.566 8-8v-2c0 4.434-3.566 8-8 8H16a7.98 7.98 0 0 1-8-8m0 0"/><path fill="url(#c)" d="M72 20a8 8 0 0 0-8 8v84a8 8 0 0 1 8-8h40c4.434 0 8-3.566 8-8V28c0-4.434-3.566-8-8-8zm0 0"/><path fill="url(#d)" d="M16 20a7.98 7.98 0 0 0-8 8v68c0 4.434 3.566 8 8 8h40a8 8 0 0 1 8 8V28a8 8 0 0 0-8-8zm0 0"/><path fill="#865e3c" d="M84 32h28v3H84zm-12-4h8v8h-8zm0 12h40v3H72zm0 8h32v3H72zm0 8h40v3H72zm0 8h36v3H72zm0 8h40v3H72zm0 8h28v3H72zm0 8h32v3H72zM24 46v2h4v4h-8v5h2c0-1.656.895-3 2-3h4v22h-4v2h18c5.54 0 10-4.016 10-9s-4.46-9-10-9h-8v-6h4c1.105 0 2 1.344 2 3h2v-5h-8v-4h4v-2zm10 16h4c3.324 0 6 3.078 6 6.906v.188C44 72.922 41.324 76 38 76h-4zm0 0"/></svg>