<svg xmlns="http://www.w3.org/2000/svg" xmlns:xlink="http://www.w3.org/1999/xlink" width="128" height="128"><linearGradient id="b" x1="8" x2="120.384" y1="116" y2="116" gradientUnits="userSpaceOnUse"><stop offset="0" stop-color="#9a9996"/><stop offset=".036" stop-color="#deddda"/><stop offset=".071" stop-color="#77767b"/><stop offset=".929" stop-color="#c0bfbc"/><stop offset=".964" stop-color="#deddda"/><stop offset="1" stop-color="#9a9996"/></linearGradient><linearGradient id="a" gradientUnits="userSpaceOnUse"><stop offset="0" stop-color="#deddda"/><stop offset=".5" stop-color="#f6f5f4"/><stop offset="1" stop-color="#c0bfbc"/></linearGradient><linearGradient xlink:href="#a" id="c" x1="64" x2="64" y1="28" y2="112"/><linearGradient id="d" x1="48" x2="48" y1="40" y2="72" gradientUnits="userSpaceOnUse"><stop offset="0" stop-color="#3d3846"/><stop offset=".5" stop-color="#5e5c64"/><stop offset=".75" stop-color="#3d3846"/><stop offset="1" stop-color="#241f31"/></linearGradient><linearGradient xlink:href="#a" id="e" x1="64" x2="64" y1="28" y2="112"/><linearGradient id="f" x1="64" x2="64" y1="96" y2="84" gradientUnits="userSpaceOnUse"><stop offset="0" stop-color="#ed333b"/><stop offset="1" stop-color="#f66151"/></linearGradient><path fill="url(#b)" d="M120 104v4c0 4.434-3.566 8-8 8H16a7.98 7.98 0 0 1-8-8v-4zm0 0"/><path fill="url(#c)" d="M16 28h64c4.434 0 6.113 3.988 8 8l32 68c1.887 4.012-3.566 8-8 8H16a7.98 7.98 0 0 1-8-8V36c0-4.434 3.566-8 8-8m0 0"/><path fill="#fff" fill-opacity=".2" d="M16 28a7.98 7.98 0 0 0-8 8v2c0-4.434 3.566-8 8-8h64c4.434 0 6.113 3.988 8 8l32 68c.105.223.176.441.238.66A3.8 3.8 0 0 0 120 104L88 36c-1.887-4.012-3.566-8-8-8zm0 0"/><path fill-opacity=".2" d="M8 102v2c0 4.434 3.566 8 8 8h96c4.188 0 9.281-3.562 8.238-7.34-.773 2.942-4.804 5.34-8.238 5.34H16a7.98 7.98 0 0 1-8-8m0 0"/><path fill="#5e5c64" d="m48 108 2 8H16a7.98 7.98 0 0 1-8-8zm0 0"/><path fill="#77767b" d="M14 106h28a2 2 0 0 1 2 2v4a2 2 0 0 1-2 2H14a2 2 0 0 1-2-2v-4a2 2 0 0 1 2-2m0 0"/><path fill="#9a9996" d="M14 104h28a2 2 0 0 1 2 2v4a2 2 0 0 1-2 2H14a2 2 0 0 1-2-2v-4a2 2 0 0 1 2-2m0 0"/><path fill="#241f31" d="M40 108c0 6.629-5.371 12-12 12s-12-5.371-12-12 5.371-12 12-12 12 5.371 12 12m0 0"/><path fill="#3d3846" d="M40 106c0 6.629-5.371 12-12 12s-12-5.371-12-12 5.371-12 12-12 12 5.371 12 12m0 0"/><path fill="#5e5c64" d="M37 106c0 4.969-4.031 9-9 9s-9-4.031-9-9 4.031-9 9-9 9 4.031 9 9m0 0"/><path fill="#fff" fill-opacity=".102" d="M39.941 105.824A12 12 0 0 1 28 117c-6.227-.016-11.41-4.793-11.926-11q-.057.497-.074 1c0 6.629 5.371 12 12 12s12-5.371 12-12q0-.591-.059-1.176m0 0"/><path fill-opacity=".2" d="M8 106v2c0 .691.098 1.36.258 2H48.5l-.5-2zm0 0"/><path fill="url(#d)" d="M8 40h68a6.48 6.48 0 0 1 5.79 3.578l12.42 24.844C95.032 70.066 93.837 72 92 72H8zm0 0"/><path fill="url(#e)" d="M8 92h40v16H8zm0 0"/><path fill="url(#f)" d="M8 84v12h108.234l-5.648-12zm0 0"/><path fill="#241f31" d="M8 40v2h68a6.48 6.48 0 0 1 5.79 3.578l12.42 24.844c.017.031.02.066.036.098a2.42 2.42 0 0 0-.035-2.098L81.789 43.578A6.48 6.48 0 0 0 76 40zm0 0"/></svg>