<svg xmlns="http://www.w3.org/2000/svg" width="128" height="128"><linearGradient id="a" x1="31.463" x2="39" y1="113.997" y2="113.997" gradientUnits="userSpaceOnUse"><stop offset="0" stop-color="#1c71d8"/><stop offset=".469" stop-color="#62a0ea"/><stop offset="1" stop-color="#1c71d8"/></linearGradient><linearGradient id="b" x1="8" x2="120" y1="70" y2="70" gradientUnits="userSpaceOnUse"><stop offset="0" stop-color="#1c71d8"/><stop offset=".071" stop-color="#62a0ea"/><stop offset=".143" stop-color="#1c71d8"/><stop offset=".857" stop-color="#1c71d8"/><stop offset=".929" stop-color="#62a0ea"/><stop offset="1" stop-color="#1c71d8"/></linearGradient><linearGradient id="c" x1="48" x2="80" y1="100" y2="32" gradientUnits="userSpaceOnUse"><stop offset="0" stop-color="#3584e4"/><stop offset="1" stop-color="#62a0ea"/></linearGradient><radialGradient id="d" cx="93.339" cy="259.469" r="21.355" gradientTransform="matrix(0 -1.49845 1.49844 0 -308.8 223.863)" gradientUnits="userSpaceOnUse"><stop offset="0" stop-color="#f8e45c"/><stop offset="1" stop-color="#ff7800"/></radialGradient><path fill="url(#a)" fill-rule="evenodd" d="M24 100v12h4c2.21 0 4 1.79 4 4v7a5 5 0 0 0 3.012 4.586 5 5 0 0 0 5.406-.945l13.523-12.707A7.14 7.14 0 0 1 58.824 112H68v-12zm0 0"/><path fill="url(#b)" d="M24 28h80c8.836 0 16 7.164 16 16v52c0 8.836-7.164 16-16 16H24c-8.836 0-16-7.164-16-16V44c0-8.836 7.164-16 16-16m0 0"/><path fill="url(#c)" d="M24 24h80c8.836 0 16 7.164 16 16v52c0 8.836-7.164 16-16 16H24c-8.836 0-16-7.164-16-16V40c0-8.836 7.164-16 16-16m0 0"/><path fill="#3584e4" fill-rule="evenodd" d="M24 106v2h4c2.21 0 4 1.79 4 4v7a5 5 0 0 0 3.012 4.586 5 5 0 0 0 5.406-.945l13.523-12.707A7.14 7.14 0 0 1 58.824 108H68v-2zm0 0"/><path fill="url(#d)" d="M63.918 48.363v.012c-1.29.035-2.332.645-3.012 1.242-.668.598-1.101 1.219-1.488 1.863-.773 1.29-1.324 2.708-1.863 4.114-.54 1.394-1.032 2.789-1.489 3.808-.246.563-.187.48-.34.703l-10.183-.023a3.05 3.05 0 0 0-2.7 1.543c.259.54.575 1.027.872 1.488.808 1.254 1.828 2.438 2.86 3.598 1.03 1.148 2.062 2.25 2.847 3.164.488.578.84 1.117 1.027 1.398-.023.215-.035.739-.207 1.332-.14.48-.328 1.043-.535 1.637-.238.692-.5 1.43-.766 2.184-.48 1.406-.96 2.824-1.195 4.289-.117.726-.187 1.476-.023 2.355.039.235.109.489.203.75.265.73.761 1.52 1.566 2.063 1.078.726 2.32.808 3.223.703.914-.106 1.64-.375 2.355-.68 1.442-.61 2.79-1.453 4.125-2.297 1.325-.843 2.625-1.687 3.645-2.273a8 8 0 0 1 1.3-.57c.274.101.755.27 1.243.558.996.586 2.25 1.453 3.55 2.309 1.301.844 2.602 1.699 4.008 2.32.692.305 1.418.586 2.332.692.915.105 2.204 0 3.282-.786a4 4 0 0 0 .34-.304 4.94 4.94 0 0 0 1.242-2.075c.34-1.082.332-2.199.187-3.117-.246-1.535-.797-2.918-1.324-4.242-.266-.668-.535-1.32-.77-1.926a21 21 0 0 1-.566-1.625c-.242-.836-.223-1.324-.223-1.453.106-.097.485-.664 1.079-1.23.82-.797 1.945-1.782 3.07-2.86 1.125-1.066 2.25-2.203 3.14-3.574.31-.48.602-1.027.825-1.621-.493-1.047-1.563-1.727-2.77-1.738H71.992c-.058-.094-.058-.07-.117-.2-.434-.831-.96-2.238-1.5-3.703-.527-1.476-1.078-3.011-1.793-4.394-.363-.692-.75-1.36-1.394-2.016-.645-.668-1.782-1.441-3.27-1.418m0 0"/><path fill="#1c71d8" d="M63.918 44.363v.012c-1.29.035-2.332.645-3.012 1.242-.668.598-1.101 1.219-1.488 1.863-.773 1.29-1.324 2.708-1.863 4.114-.54 1.394-1.032 2.789-1.489 3.808-.246.563-.187.48-.34.703l-10.183-.023c-1.36-.012-2.543.844-2.941 2.086-.438 1.422-.2 2.52.242 3.457a3.05 3.05 0 0 1 2.699-1.543l10.184.023c.152-.222.093-.14.34-.703.456-1.02.949-2.414 1.488-3.808.539-1.407 1.09-2.824 1.863-4.114.387-.644.82-1.265 1.488-1.863.68-.597 1.723-1.207 3.012-1.242v-.012c1.488-.023 2.625.75 3.27 1.418.644.657 1.03 1.324 1.394 2.016.715 1.383 1.266 2.918 1.793 4.394.54 1.465 1.066 2.871 1.5 3.704.059.128.059.105.117.199h10.793c1.207.011 2.278.691 2.774 1.738.421-1.117.597-2.402.109-3.758-.434-1.183-1.582-1.969-2.883-1.98H71.992c-.058-.094-.058-.07-.117-.2-.434-.831-.96-2.238-1.5-3.703-.527-1.476-1.078-3.011-1.793-4.394-.363-.692-.75-1.36-1.394-2.016-.645-.668-1.782-1.441-3.27-1.418m0 0"/></svg>