<svg xmlns="http://www.w3.org/2000/svg" xmlns:xlink="http://www.w3.org/1999/xlink" width="128" height="128"><linearGradient id="c" x1="64" x2="64" y1="200" y2="284" gradientTransform="matrix(.82143 0 0 1.04762 11.429 -181.525)" gradientUnits="userSpaceOnUse"><stop offset="0" stop-color="#e01b24"/><stop offset=".5" stop-color="#f66151"/><stop offset="1" stop-color="#c01c28"/></linearGradient><linearGradient id="a" gradientUnits="userSpaceOnUse"><stop offset="0" stop-color="#deddda"/><stop offset=".5" stop-color="#f6f5f4"/><stop offset="1" stop-color="#9a9996"/></linearGradient><linearGradient xlink:href="#a" id="d" x1="112" x2="112" y1="192" y2="292" gradientTransform="matrix(.375 0 0 1.04 75 -179.68)"/><linearGradient id="b" gradientUnits="userSpaceOnUse"><stop offset="0" stop-color="#deddda"/><stop offset=".5" stop-color="#f6f5f4"/><stop offset="1" stop-color="#c0bfbc"/></linearGradient><linearGradient xlink:href="#b" id="e" x1="112" x2="112" y1="187.652" y2="296.348" gradientTransform="matrix(.25 0 0 .96 84 -160.32)"/><linearGradient xlink:href="#a" id="f" x1="112" x2="112" y1="192" y2="292" gradientTransform="matrix(.375 0 0 1.04 -31 -179.68)"/><linearGradient xlink:href="#b" id="g" x1="112" x2="112" y1="187.652" y2="296.348" gradientTransform="matrix(.25 0 0 .96 -12 -160.32)"/><path fill="url(#c)" d="M18 28h92v88H18zm0 0"/><path fill-opacity=".2" d="M18 114h92v2H18zm0 0"/><path fill="#fff" fill-opacity=".2" d="M18 28h92v2H18zm0 0"/><path fill="#deddda" d="M118 108h4c1.11 0 2 .89 2 2v4c0 1.11-.89 2-2 2h-4c-1.11 0-2-.89-2-2v-4c0-1.11.89-2 2-2m0-20h4c1.11 0 2 .89 2 2v4c0 1.11-.89 2-2 2h-4c-1.11 0-2-.89-2-2v-4c0-1.11.89-2 2-2m0-20h4c1.11 0 2 .89 2 2v4c0 1.11-.89 2-2 2h-4c-1.11 0-2-.89-2-2v-4c0-1.11.89-2 2-2m0-20h4c1.11 0 2 .89 2 2v4c0 1.11-.89 2-2 2h-4c-1.11 0-2-.89-2-2v-4c0-1.11.89-2 2-2m0-20h4c1.11 0 2 .89 2 2v4c0 1.11-.89 2-2 2h-4c-1.11 0-2-.89-2-2v-4c0-1.11.89-2 2-2m0 0"/><path fill="#c0bfbc" d="M118 28c-1.11 0-2 .89-2 2v4c0 1.11.89 2 2 2h4c.176 0 .34-.027.5-.07A1.99 1.99 0 0 1 121 34v-4a1.99 1.99 0 0 1 1.5-1.93 2 2 0 0 0-.5-.07zm0 20c-1.11 0-2 .89-2 2v4c0 1.11.89 2 2 2h4c.176 0 .34-.027.5-.07A1.99 1.99 0 0 1 121 54v-4a1.99 1.99 0 0 1 1.5-1.93 2 2 0 0 0-.5-.07zm0 20c-1.11 0-2 .89-2 2v4c0 1.11.89 2 2 2h4c.176 0 .34-.027.5-.07A1.99 1.99 0 0 1 121 74v-4a1.99 1.99 0 0 1 1.5-1.93 2 2 0 0 0-.5-.07zm0 20c-1.11 0-2 .89-2 2v4c0 1.11.89 2 2 2h4c.176 0 .34-.027.5-.07A1.99 1.99 0 0 1 121 94v-4a1.99 1.99 0 0 1 1.5-1.93 2 2 0 0 0-.5-.07zm0 20c-1.11 0-2 .89-2 2v4c0 1.11.89 2 2 2h4c.176 0 .34-.027.5-.07A1.99 1.99 0 0 1 121 114v-4a1.99 1.99 0 0 1 1.5-1.93 2 2 0 0 0-.5-.07zm0 0"/><path fill="url(#d)" d="M114 20h6v104h-6zm0 0"/><path fill="url(#e)" d="M110 24h4v96h-4zm0 0"/><path fill="#77767b" fill-opacity=".502" d="M110 24h4v96h-4zm0 0"/><path fill="#fff" fill-opacity=".502" d="M110 24h2v96h-2zm0 0"/><path fill="#deddda" d="M6 108h4c1.11 0 2 .89 2 2v4c0 1.11-.89 2-2 2H6c-1.11 0-2-.89-2-2v-4c0-1.11.89-2 2-2m0-20h4c1.11 0 2 .89 2 2v4c0 1.11-.89 2-2 2H6c-1.11 0-2-.89-2-2v-4c0-1.11.89-2 2-2m0-20h4c1.11 0 2 .89 2 2v4c0 1.11-.89 2-2 2H6c-1.11 0-2-.89-2-2v-4c0-1.11.89-2 2-2m0-20h4c1.11 0 2 .89 2 2v4c0 1.11-.89 2-2 2H6c-1.11 0-2-.89-2-2v-4c0-1.11.89-2 2-2m0-20h4c1.11 0 2 .89 2 2v4c0 1.11-.89 2-2 2H6c-1.11 0-2-.89-2-2v-4c0-1.11.89-2 2-2m0 0"/><path fill="#c0bfbc" d="M6 28c-.176 0-.34.027-.5.07A1.99 1.99 0 0 1 7 30v4a1.99 1.99 0 0 1-1.5 1.93c.16.043.324.07.5.07h4c1.11 0 2-.89 2-2v-4c0-1.11-.89-2-2-2zm0 20c-.176 0-.34.027-.5.07A1.99 1.99 0 0 1 7 50v4a1.99 1.99 0 0 1-1.5 1.93c.16.043.324.07.5.07h4c1.11 0 2-.89 2-2v-4c0-1.11-.89-2-2-2zm0 20c-.176 0-.34.027-.5.07A1.99 1.99 0 0 1 7 70v4a1.99 1.99 0 0 1-1.5 1.93c.16.043.324.07.5.07h4c1.11 0 2-.89 2-2v-4c0-1.11-.89-2-2-2zm0 20c-.176 0-.34.027-.5.07A1.99 1.99 0 0 1 7 90v4a1.99 1.99 0 0 1-1.5 1.93c.16.043.324.07.5.07h4c1.11 0 2-.89 2-2v-4c0-1.11-.89-2-2-2zm0 20c-.176 0-.34.027-.5.07A1.99 1.99 0 0 1 7 110v4a1.99 1.99 0 0 1-1.5 1.93c.16.043.324.07.5.07h4c1.11 0 2-.89 2-2v-4c0-1.11-.89-2-2-2zm0 0"/><path fill="url(#f)" d="M8 20h6v104H8zm0 0"/><path fill="url(#g)" d="M14 24h4v96h-4zm0 0"/><path fill="#77767b" fill-opacity=".502" d="M14 24h4v96h-4zm0 0"/><path fill="#fff" fill-opacity=".502" d="M16 24h2v96h-2zm0 0"/><path fill="#c0bfbc" d="M52 62v24a2.32 2.32 0 0 0 3.473 2.016l21.054-12.032c.711-.406 1.153-1.164 1.153-1.984s-.442-1.578-1.153-1.984L55.473 59.984A2.32 2.32 0 0 0 52 62m0 0"/><path fill="#f6f5f4" d="M52 60v24a2.32 2.32 0 0 0 3.473 2.016l21.054-12.032c.711-.406 1.153-1.164 1.153-1.984s-.442-1.578-1.153-1.984L55.473 57.984A2.32 2.32 0 0 0 52 60m0 0"/><path fill-opacity=".102" d="M54.719 57.71a2.35 2.35 0 0 0-1.89.513A2.32 2.32 0 0 0 52 60v2a2.32 2.32 0 0 1 3.473-2.016l21.054 12.032a2.3 2.3 0 0 1 .91.984 2.29 2.29 0 0 0-.91-2.984L55.473 57.984a2.4 2.4 0 0 0-.754-.273m0 0"/></svg>