<svg xmlns="http://www.w3.org/2000/svg" xmlns:xlink="http://www.w3.org/1999/xlink" width="128" height="128"><linearGradient id="a" gradientUnits="userSpaceOnUse"><stop offset="0" stop-color="#9a9996"/><stop offset=".5" stop-color="#deddda"/><stop offset="1" stop-color="#9a9996"/></linearGradient><linearGradient xlink:href="#a" id="d" x1="50" x2="54" y1="180" y2="180" gradientTransform="rotate(-45 -148.38 113)"/><linearGradient id="b" gradientUnits="userSpaceOnUse"><stop offset="0" stop-color="#deddda"/><stop offset="1" stop-color="#9a9996"/></linearGradient><radialGradient xlink:href="#b" id="e" cx="54" cy="162" r="6" gradientTransform="rotate(-45 -148.38 113)"/><linearGradient id="c" gradientUnits="userSpaceOnUse"><stop offset="0" stop-color="#deddda" stop-opacity="0"/><stop offset="1" stop-color="#241f31" stop-opacity=".2"/></linearGradient><radialGradient xlink:href="#c" id="f" cx="54" cy="162" r="6" gradientTransform="rotate(-45 -148.38 113)"/><linearGradient xlink:href="#a" id="g" x1="50" x2="54" y1="180" y2="180" gradientTransform="scale(-1 1)rotate(-45 -200.38 238.539)"/><radialGradient xlink:href="#b" id="h" cx="54" cy="162" r="6" gradientTransform="scale(-1 1)rotate(-45 -200.38 238.539)"/><radialGradient xlink:href="#c" id="i" cx="54" cy="162" r="6" gradientTransform="scale(-1 1)rotate(-45 -200.38 238.539)"/><clipPath id="j"><path d="M8 30h88v42H8zm0 0"/></clipPath><clipPath id="k"><path d="M31 28h42c12.703 0 23 10.297 23 23S85.703 74 73 74H31C18.297 74 8 63.703 8 51s10.297-23 23-23m0 0"/></clipPath><linearGradient id="l" x1="52" x2="52" y1="29" y2="74" gradientUnits="userSpaceOnUse"><stop offset="0" stop-color="#fff" stop-opacity=".102"/><stop offset="1" stop-color="#fff" stop-opacity="0"/></linearGradient><clipPath id="n"><path d="M24 34h20v2H24zm0 4h20v2H24zm0 4h20v2H24zm0 4h20v2H24zm0 4h20v2H24zm0 0"/></clipPath><clipPath id="p"><path d="M60 34h20v2H60zm0 4h20v2H60zm0 4h20v2H60zm0 4h20v2H60zm0 4h20v2H60zm0 0"/></clipPath><clipPath id="q"><path d="M40 58h24v2H40zm0 4h24v2H40zm0 4h24v2H40zm0 0"/></clipPath><path fill="url(#d)" d="m27.957 8.785 2.828-2.828 22.63 22.629-2.83 2.828zm0 0"/><path fill="url(#e)" d="M33.613 3.129a6 6 0 0 1 0 8.484 6 6 0 0 1-8.484 0 6 6 0 0 1 0-8.484 6 6 0 0 1 8.484 0m0 0"/><path fill="url(#f)" d="M33.613 3.129a6 6 0 0 1 0 8.484 6 6 0 0 1-8.484 0 6 6 0 0 1 0-8.484 6 6 0 0 1 8.484 0m0 0"/><path fill="url(#g)" d="m76.043 8.785-2.828-2.828-22.63 22.629 2.83 2.828zm0 0"/><path fill="url(#h)" d="M70.387 3.129a6 6 0 0 0 0 8.484 6 6 0 0 0 8.484 0 6 6 0 0 0 0-8.484 6 6 0 0 0-8.484 0m0 0"/><path fill="url(#i)" d="M70.387 3.129a6 6 0 0 0 0 8.484 6 6 0 0 0 8.484 0 6 6 0 0 0 0-8.484 6 6 0 0 0-8.484 0m0 0"/><path fill="#ff7800" d="M56 52h40c15.465 0 28 12.535 28 28s-12.535 28-28 28H56c-15.465 0-28-12.535-28-28s12.535-28 28-28m0 0"/><path fill="#e66100" fill-rule="evenodd" d="M100 106v14l-16-14zm0 0"/><path fill="#e66100" d="M28.023 79c-.007.332-.023.664-.023 1a27.94 27.94 0 0 0 28 28h40a27.94 27.94 0 0 0 28-28c0-.336-.016-.668-.027-1-.524 15.043-12.797 27-27.973 27H56c-15.176 0-27.45-11.957-27.977-27m0 0"/><path fill="#ff7800" fill-rule="evenodd" d="M100 104v14l-16-14zm0 0"/><path fill="#3584e4" d="M32 24h40c15.465 0 28 12.535 28 28S87.465 80 72 80H32C16.535 80 4 67.465 4 52s12.535-28 28-28m0 0"/><path fill="#241f31" d="M31 28h42c12.703 0 23 10.297 23 23S85.703 74 73 74H31C18.297 74 8 63.703 8 51s10.297-23 23-23m0 0"/><g clip-path="url(#j)"><g clip-path="url(#k)"><path fill="url(#l)" d="M6 70h92v2H6zm0-4h92v2H6zm0-4h92v2H6zm0-4h92v2H6zm0-4h92v2H6zm0-4h92v2H6zm0-4h92v2H6zm0-4h92v2H6zm0-4h92v2H6zm0-4h92v2H6zm0-4h92v2H6zm0 0"/></g></g><path fill="#1a5fb4" d="M4.023 51c-.007.332-.023.664-.023 1a27.94 27.94 0 0 0 28 28h40a27.94 27.94 0 0 0 28-28c0-.336-.016-.668-.027-1C99.449 66.043 87.176 78 72 78H32C16.824 78 4.55 66.043 4.023 51m0 0"/><path fill="#1a5fb4" fill-rule="evenodd" d="M28 78v14l16-14zm0 0"/><path fill="#3584e4" fill-rule="evenodd" d="M28 76v14l16-14zm0 0"/><g clip-path="url(#n)"><path fill="#62a0ea" d="M44 44c0 5.523-4.477 10-10 10s-10-4.477-10-10 4.477-10 10-10 10 4.477 10 10m0 0"/></g><g clip-path="url(#p)"><path fill="#62a0ea" d="M80 44c0 5.523-4.477 10-10 10s-10-4.477-10-10 4.477-10 10-10 10 4.477 10 10m0 0"/></g><g clip-path="url(#q)"><path fill="#62a0ea" d="M40 56c0 4.285 2.29 8.25 6 10.395 3.71 2.14 8.29 2.14 12 0 3.71-2.145 6-6.11 6-10.395h-4a7.99 7.99 0 0 1-4 6.926 7.98 7.98 0 0 1-8 0A7.99 7.99 0 0 1 44 56zm0 0"/></g><path fill="#c0bfbc" d="M105.625 70.004c3.29-.188 6.195 2.344 6.375 5.625 0 2.805-.758 3.844-3.187 5.687-.383.29-.649.5-.75.625s-.063.063-.063.063c.016 1.055-.945 2-2 2s-2.016-.945-2-2c0-1.008.453-1.89.938-2.5a7.7 7.7 0 0 1 1.437-1.375 9 9 0 0 0 1.375-1.313c.188-.226.258-.617.25-.875v-.062c-.062-1.125-1-1.938-2.125-1.875s-1.937.875-1.875 2h-4c-.18-3.281 2.344-5.813 5.625-6m.375 16c1.102 0 2 .898 2 2s-.898 2-2 2-2-.899-2-2c0-1.102.898-2 2-2m-14.375-16c3.29-.188 6.195 2.344 6.375 5.625 0 2.805-.758 3.844-3.187 5.687-.383.29-.649.5-.75.625s-.063.063-.063.063c.016 1.055-.945 2-2 2s-2.016-.945-2-2c0-1.008.453-1.89.938-2.5a7.7 7.7 0 0 1 1.437-1.375 9 9 0 0 0 1.375-1.313c.188-.226.258-.617.25-.875v-.062c-.062-1.125-1-1.938-2.125-1.875s-1.937.875-1.875 2h-4c-.18-3.281 2.344-5.813 5.625-6m.375 16c1.102 0 2 .898 2 2s-.898 2-2 2-2-.899-2-2c0-1.102.898-2 2-2m-14.375-16c3.29-.188 6.195 2.344 6.375 5.625 0 2.805-.758 3.844-3.187 5.687-.383.29-.649.5-.75.625s-.063.063-.063.063c.016 1.055-.945 2-2 2s-2.016-.945-2-2c0-1.008.453-1.89.938-2.5a7.7 7.7 0 0 1 1.437-1.375 9 9 0 0 0 1.375-1.313c.188-.226.258-.617.25-.875v-.062c-.062-1.125-1-1.938-2.125-1.875s-1.937.875-1.875 2h-4c-.18-3.281 2.344-5.813 5.625-6m.375 16c1.102 0 2 .898 2 2s-.898 2-2 2-2-.899-2-2c0-1.102.898-2 2-2m0 0"/><path fill="#fff" d="M105.625 68.004c3.29-.188 6.195 2.344 6.375 5.625 0 2.805-.758 3.844-3.187 5.687-.383.29-.649.5-.75.625s-.063.063-.063.063c.016 1.055-.945 2-2 2s-2.016-.945-2-2c0-1.008.453-1.89.938-2.5a7.7 7.7 0 0 1 1.437-1.375 9 9 0 0 0 1.375-1.313c.188-.226.258-.617.25-.875v-.062c-.062-1.125-1-1.938-2.125-1.875s-1.937.875-1.875 2h-4c-.18-3.281 2.344-5.813 5.625-6m.375 16c1.102 0 2 .898 2 2s-.898 2-2 2-2-.899-2-2c0-1.102.898-2 2-2m-14.375-16c3.29-.188 6.195 2.344 6.375 5.625 0 2.805-.758 3.844-3.187 5.687-.383.29-.649.5-.75.625s-.063.063-.063.063c.016 1.055-.945 2-2 2s-2.016-.945-2-2c0-1.008.453-1.89.938-2.5a7.7 7.7 0 0 1 1.437-1.375 9 9 0 0 0 1.375-1.313c.188-.226.258-.617.25-.875v-.062c-.062-1.125-1-1.938-2.125-1.875s-1.937.875-1.875 2h-4c-.18-3.281 2.344-5.813 5.625-6m.375 16c1.102 0 2 .898 2 2s-.898 2-2 2-2-.899-2-2c0-1.102.898-2 2-2m-14.375-16c3.29-.188 6.195 2.344 6.375 5.625 0 2.805-.758 3.844-3.187 5.687-.383.29-.649.5-.75.625s-.063.063-.063.063c.016 1.055-.945 2-2 2s-2.016-.945-2-2c0-1.008.453-1.89.938-2.5a7.7 7.7 0 0 1 1.437-1.375 9 9 0 0 0 1.375-1.313c.188-.226.258-.617.25-.875v-.062c-.062-1.125-1-1.938-2.125-1.875s-1.937.875-1.875 2h-4c-.18-3.281 2.344-5.813 5.625-6m.375 16c1.102 0 2 .898 2 2s-.898 2-2 2-2-.899-2-2c0-1.102.898-2 2-2m0 0"/></svg>