<svg xmlns="http://www.w3.org/2000/svg" xmlns:xlink="http://www.w3.org/1999/xlink" width="128" height="128"><linearGradient id="d" x1="24" x2="104" y1="60" y2="60" gradientUnits="userSpaceOnUse"><stop offset="0" stop-color="#c0bfbc"/><stop offset=".5" stop-color="#f6f5f4"/><stop offset="1" stop-color="#c0bfbc"/></linearGradient><linearGradient id="a" gradientUnits="userSpaceOnUse"><stop offset="0" stop-color="#f6d32d"/><stop offset=".5" stop-color="#f8e45c"/><stop offset="1" stop-color="#f6d32d"/></linearGradient><linearGradient xlink:href="#a" id="e" x1="24" x2="104" y1="69.333" y2="69.333"/><linearGradient id="b" gradientUnits="userSpaceOnUse"><stop offset="0" stop-color="#ff7800"/><stop offset=".5" stop-color="#ffa348"/><stop offset="1" stop-color="#ff7800"/></linearGradient><linearGradient xlink:href="#b" id="f" x1="24" x2="104" y1="95.333" y2="95.333"/><linearGradient id="c" gradientUnits="userSpaceOnUse"><stop offset="0" stop-color="#9a9996"/><stop offset=".5" stop-color="#c0bfbc"/><stop offset="1" stop-color="#9a9996"/></linearGradient><linearGradient xlink:href="#c" id="g" x1="32" x2="96" y1="118" y2="118"/><linearGradient xlink:href="#c" id="h" x1="28" x2="100" y1="10" y2="10"/><linearGradient xlink:href="#b" id="i" x1="27.615" x2="101.143" y1="48" y2="48"/><linearGradient xlink:href="#a" id="j" x1="24" x2="104" y1="48" y2="48"/><path fill="url(#d)" d="m32 8-8 16v80c0 4.434 3.566 8 8 8h64c4.434 0 8-3.566 8-8V24L96 8zm0 0"/><path fill="url(#e)" d="M48 50.668c-8-.004-16 2.664-24 5.332v32h80V51.477c-2.668-.493-5.332-.809-8-.809-8-.004-16 2.664-24 2.664-7.996.004-15.996-2.664-24-2.664m0 0"/><path fill="url(#f)" d="M48 78.668c-8-.004-16 2.664-24 5.332v24a8 8 0 0 0 8 8h64a8 8 0 0 0 8-8V79.477c-2.664-.497-5.332-.809-8-.809-8-.004-16 2.664-24 2.664-7.996.004-15.996-2.664-24-2.664m0 0"/><path fill-opacity=".102" d="M24 106v2a8 8 0 0 0 8 8h64a8 8 0 0 0 8-8v-2a8 8 0 0 1-8 8H32a8 8 0 0 1-8-8m0 0"/><path fill="url(#g)" d="m32 116 1.105 2.21A3.23 3.23 0 0 0 36 120h56a3.23 3.23 0 0 0 2.895-1.79L96 116zm0 0"/><path fill="url(#h)" d="M30 8h68a2 2 0 1 1 0 4H30a2 2 0 1 1 0-4m0 0"/><path fill="#fff" fill-opacity=".2" d="M30 8c-1.11 0-2 .89-2 2 0 .367.105.703.277 1 .344-.598.98-1 1.723-1h68a1.98 1.98 0 0 1 1.723 1 2 2 0 0 0 .277-1c0-1.11-.89-2-2-2zm0 0"/><path fill="url(#i)" d="M90 48c0 14.36-11.64 26-26 26S38 62.36 38 48s11.64-26 26-26 26 11.64 26 26m0 0"/><path fill="url(#j)" d="M65 32.031v11.555a.83.83 0 0 0 1.414.586L74.586 36c.781-.781.75-2.023-.148-2.66a18 18 0 0 0-7.45-3.09c-1.09-.184-1.988.676-1.988 1.781m-3.988-1.738a17.95 17.95 0 0 0-7.434 3.062c-.902.637-.933 1.875-.152 2.657l8.16 8.16A.83.83 0 0 0 63 43.586V32.074c0-1.105-.898-1.965-1.988-1.781M76 37.414l-8.172 8.172A.83.83 0 0 0 68.414 47H79.97c1.105 0 1.965-.898 1.781-1.988a18 18 0 0 0-3.09-7.45c-.637-.898-1.879-.93-2.66-.148m-26.645.164a17.95 17.95 0 0 0-3.062 7.434C46.11 46.102 46.97 47 48.075 47h11.512a.83.83 0 0 0 .586-1.414l-8.16-8.16c-.782-.781-2.02-.75-2.657.152m-3.062 13.41a17.95 17.95 0 0 0 3.062 7.434c.637.902 1.875.933 2.657.152l8.16-8.16A.83.83 0 0 0 59.586 49H48.074c-1.105 0-1.965.898-1.781 1.988m21.535-.574 8.16 8.16c.782.781 2.02.75 2.657-.152a17.95 17.95 0 0 0 3.062-7.434c.184-1.09-.676-1.988-1.781-1.988H68.414a.83.83 0 0 0-.586 1.414m-6.242 1.414-8.16 8.16c-.781.782-.75 2.02.152 2.657a17.95 17.95 0 0 0 7.434 3.062c1.09.184 1.988-.676 1.988-1.781V52.414a.83.83 0 0 0-1.414-.586m3.414.586v11.512c0 1.105.898 1.965 1.988 1.781a17.95 17.95 0 0 0 7.434-3.062c.902-.637.933-1.875.152-2.657l-8.16-8.16a.83.83 0 0 0-1.414.586M64 24c-13.23 0-24 10.77-24 24s10.77 24 24 24 24-10.77 24-24-10.77-24-24-24m0 4c11.07 0 20 8.93 20 20s-8.93 20-20 20-20-8.93-20-20 8.93-20 20-20m0 0"/></svg>