<svg xmlns="http://www.w3.org/2000/svg" width="128" height="128"><linearGradient id="a" x1="128.22" x2="125.686" y1="243.433" y2="181.426" gradientTransform="rotate(10 990.986 5.442)" gradientUnits="userSpaceOnUse"><stop offset="0" stop-color="#3584e4"/><stop offset="1" stop-color="#99c1f1"/></linearGradient><radialGradient id="b" cx="32" cy="100" r="24" gradientUnits="userSpaceOnUse"><stop offset="0" stop-color="#ffa348"/><stop offset="1" stop-color="#e66100"/></radialGradient><path fill="url(#a)" d="m57.457 6.93 55.148 9.722c4.352.766 7.254 4.918 6.489 9.266l-15.281 86.664a7.996 7.996 0 0 1-9.266 6.488l-55.152-9.722c-4.352-.766-7.254-4.918-6.489-9.266l15.282-86.664a8 8 0 0 1 9.269-6.488m0 0"/><path fill-opacity=".251" d="M117.809 19.992a8 8 0 0 1 .285 3.926l-15.281 86.664a7.98 7.98 0 0 1-9.27 6.488l-55.148-9.722a7.98 7.98 0 0 1-5.204-3.34 7.98 7.98 0 0 0 6.204 5.34l55.152 9.722a7.98 7.98 0 0 0 9.266-6.488l15.28-86.664a8 8 0 0 0-1.284-5.926m0 0"/><path fill="#fff" d="M36 12h56a8 8 0 0 1 8 8v88a8 8 0 0 1-8 8H36a8 8 0 0 1-8-8V20a8 8 0 0 1 8-8m0 0"/><path fill-opacity=".149" d="M28 106v2c0 4.434 3.566 8 8 8h56c4.434 0 8-3.566 8-8v-2c0 4.434-3.566 8-8 8H36a7.98 7.98 0 0 1-8-8m0 0"/><path fill="#5e5c64" fill-opacity=".2" d="M52 22h40v6H52zm0 10h32v4H52zm0 32h32v4H52zm0 8h24v4H52zm0 8h32v4H52zm0 8h28v4H52zm0 8h32v4H52zm0 0"/><path fill="#ff7800" d="M40 44h28c2.21 0 4 1.79 4 4v4c0 2.21-1.79 4-4 4H40c-2.21 0-4-1.79-4-4v-4c0-2.21 1.79-4 4-4m0 0"/><path fill="#e66100" d="M36 50v2c0 2.215 1.785 4 4 4h28c2.215 0 4-1.785 4-4v-2c0 2.215-1.785 4-4 4H40c-2.215 0-4-1.785-4-4m0 0"/><path fill="#ff7800" d="M40 44c2.21 0 4 1.79 4 4v52c0 2.21-1.79 4-4 4s-4-1.79-4-4V48c0-2.21 1.79-4 4-4m0 0"/><path fill="#fff" fill-opacity=".2" d="M40 44c-2.215 0-4 1.785-4 4v2c0-2.215 1.785-4 4-4h28c2.215 0 4 1.785 4 4v-2c0-2.215-1.785-4-4-4zm0 0"/><path fill="url(#b)" d="M44 104c0 8.836-7.164 16-16 16s-16-7.164-16-16 7.164-16 16-16 16 7.164 16 16m0 0"/><path fill="#fff" fill-opacity=".2" d="M28 88c-8.836 0-16 7.164-16 16q.018.503.07 1c.528-8.418 7.496-14.98 15.93-15 8.348 0 15.293 6.426 15.95 14.75q.03-.375.05-.75c0-8.836-7.164-16-16-16m0 0"/><path fill-opacity=".2" d="M28 120c-8.836 0-16-7.164-16-16q.018-.503.07-1c.528 8.418 7.496 14.98 15.93 15 8.348 0 15.293-6.426 15.95-14.75q.03.375.05.75c0 8.836-7.164 16-16 16m0 0"/></svg>