<svg xmlns="http://www.w3.org/2000/svg" xmlns:xlink="http://www.w3.org/1999/xlink" width="128" height="128"><filter id="b" width="100%" height="100%" x="0%" y="0%"><feColorMatrix color-interpolation-filters="sRGB" values="0 0 0 0 1 0 0 0 0 1 0 0 0 0 1 0 0 0 1 0"/></filter><linearGradient id="c" x1="8" x2="120" y1="116" y2="116" gradientUnits="userSpaceOnUse"><stop offset="0" stop-color="#3d3846"/><stop offset=".036" stop-color="#77767b"/><stop offset=".071" stop-color="#5e5c64"/><stop offset=".929" stop-color="#5e5c64"/><stop offset=".964" stop-color="#77767b"/><stop offset="1" stop-color="#3d3846"/></linearGradient><linearGradient id="d" x1="24" x2="32" y1="110" y2="110" gradientUnits="userSpaceOnUse"><stop offset="0" stop-color="#77767b"/><stop offset=".5" stop-color="#9a9996"/><stop offset="1" stop-color="#77767b"/></linearGradient><linearGradient id="e" x1="96" x2="96" y1="84" y2="96" gradientUnits="userSpaceOnUse"><stop offset="0" stop-color="#f651a3"/><stop offset="1" stop-color="#f881bc"/></linearGradient><linearGradient id="f" x1="96" x2="96" y1="66" y2="78" gradientUnits="userSpaceOnUse"><stop offset="0" stop-color="#8ff0a4"/><stop offset="1" stop-color="#bcf6c8"/></linearGradient><linearGradient id="g" x1="96" x2="96" y1="262" y2="274" gradientTransform="matrix(.4375 0 0 1 45 -214)" gradientUnits="userSpaceOnUse"><stop offset="0" stop-color="#99c1f1"/><stop offset="1" stop-color="#c5dcf7"/></linearGradient><linearGradient id="h" x1="96" x2="96" y1="262" y2="274" gradientTransform="matrix(.4375 0 0 1 63 -214)" gradientUnits="userSpaceOnUse"><stop offset="0" stop-color="#ffbe6f"/><stop offset="1" stop-color="#ffd6a3"/></linearGradient><linearGradient id="a" gradientUnits="userSpaceOnUse"><stop offset="0" stop-color="#c0bfbc"/><stop offset="1" stop-color="#deddda"/></linearGradient><linearGradient xlink:href="#a" id="i" x1="96" x2="96" y1="262" y2="274" gradientTransform="matrix(.4375 0 0 1 17 -214)"/><linearGradient xlink:href="#a" id="k" x1="96" x2="96" y1="262" y2="274" gradientTransform="matrix(.4375 0 0 1 17 -196)"/><linearGradient xlink:href="#a" id="l" x1="96" x2="96" y1="262" y2="274" gradientTransform="matrix(.4375 0 0 1 17 -178)"/><linearGradient xlink:href="#a" id="m" x1="96" x2="96" y1="262" y2="274" gradientTransform="matrix(.4375 0 0 1 -1 -178)"/><linearGradient xlink:href="#a" id="n" x1="96" x2="96" y1="262" y2="274" gradientTransform="matrix(.4375 0 0 1 -1 -196)"/><linearGradient xlink:href="#a" id="o" x1="96" x2="96" y1="262" y2="274" gradientTransform="matrix(.4375 0 0 1 -1 -214)"/><linearGradient xlink:href="#a" id="p" x1="96" x2="96" y1="262" y2="274" gradientTransform="matrix(.4375 0 0 1 -19 -214)"/><linearGradient xlink:href="#a" id="q" x1="96" x2="96" y1="262" y2="274" gradientTransform="matrix(.4375 0 0 1 -19 -196)"/><linearGradient xlink:href="#a" id="r" x1="96" x2="96" y1="262" y2="274" gradientTransform="matrix(.4375 0 0 1 -19 -178)"/><mask id="s"><g filter="url(#b)"><path fill-opacity=".2" d="M-12.8-12.8h153.6v153.6H-12.8z"/></g></mask><clipPath id="t"><path d="M0 0h192v152H0z"/></clipPath><mask id="u"><g filter="url(#b)"><path fill-opacity=".2" d="M-12.8-12.8h153.6v153.6H-12.8z"/></g></mask><clipPath id="v"><path d="M0 0h192v152H0z"/></clipPath><mask id="w"><g filter="url(#b)"><path fill-opacity=".2" d="M-12.8-12.8h153.6v153.6H-12.8z"/></g></mask><clipPath id="x"><path d="M0 0h192v152H0z"/></clipPath><mask id="y"><g filter="url(#b)"><path fill-opacity=".2" d="M-12.8-12.8h153.6v153.6H-12.8z"/></g></mask><clipPath id="z"><path d="M0 0h192v152H0z"/></clipPath><mask id="A"><g filter="url(#b)"><path fill-opacity=".2" d="M-12.8-12.8h153.6v153.6H-12.8z"/></g></mask><clipPath id="B"><path d="M0 0h192v152H0z"/></clipPath><mask id="C"><g filter="url(#b)"><path fill-opacity=".2" d="M-12.8-12.8h153.6v153.6H-12.8z"/></g></mask><clipPath id="D"><path d="M0 0h192v152H0z"/></clipPath><mask id="E"><g filter="url(#b)"><path fill-opacity=".2" d="M-12.8-12.8h153.6v153.6H-12.8z"/></g></mask><clipPath id="F"><path d="M0 0h192v152H0z"/></clipPath><mask id="G"><g filter="url(#b)"><path fill-opacity=".2" d="M-12.8-12.8h153.6v153.6H-12.8z"/></g></mask><clipPath id="H"><path d="M0 0h192v152H0z"/></clipPath><mask id="I"><g filter="url(#b)"><path fill-opacity=".2" d="M-12.8-12.8h153.6v153.6H-12.8z"/></g></mask><clipPath id="J"><path d="M0 0h192v152H0z"/></clipPath><mask id="K"><g filter="url(#b)"><path fill-opacity=".1" d="M-12.8-12.8h153.6v153.6H-12.8z"/></g></mask><clipPath id="L"><path d="M0 0h192v152H0z"/></clipPath><mask id="M"><g filter="url(#b)"><path fill-opacity=".1" d="M-12.8-12.8h153.6v153.6H-12.8z"/></g></mask><clipPath id="N"><path d="M0 0h192v152H0z"/></clipPath><mask id="O"><g filter="url(#b)"><path fill-opacity=".1" d="M-12.8-12.8h153.6v153.6H-12.8z"/></g></mask><clipPath id="P"><path d="M0 0h192v152H0z"/></clipPath><mask id="Q"><g filter="url(#b)"><path fill-opacity=".1" d="M-12.8-12.8h153.6v153.6H-12.8z"/></g></mask><clipPath id="R"><path d="M0 0h192v152H0z"/></clipPath><mask id="S"><g filter="url(#b)"><path fill-opacity=".1" d="M-12.8-12.8h153.6v153.6H-12.8z"/></g></mask><clipPath id="T"><path d="M0 0h192v152H0z"/></clipPath><mask id="U"><g filter="url(#b)"><path fill-opacity=".1" d="M-12.8-12.8h153.6v153.6H-12.8z"/></g></mask><clipPath id="V"><path d="M0 0h192v152H0z"/></clipPath><mask id="W"><g filter="url(#b)"><path fill-opacity=".1" d="M-12.8-12.8h153.6v153.6H-12.8z"/></g></mask><clipPath id="X"><path d="M0 0h192v152H0z"/></clipPath><mask id="Y"><g filter="url(#b)"><path fill-opacity=".1" d="M-12.8-12.8h153.6v153.6H-12.8z"/></g></mask><clipPath id="Z"><path d="M0 0h192v152H0z"/></clipPath><mask id="aa"><g filter="url(#b)"><path fill-opacity=".1" d="M-12.8-12.8h153.6v153.6H-12.8z"/></g></mask><clipPath id="ab"><path d="M0 0h192v152H0z"/></clipPath><mask id="ac"><g filter="url(#b)"><path fill-opacity=".2" d="M-12.8-12.8h153.6v153.6H-12.8z"/></g></mask><clipPath id="ad"><path d="M0 0h192v152H0z"/></clipPath><mask id="ae"><g filter="url(#b)"><path fill-opacity=".2" d="M-12.8-12.8h153.6v153.6H-12.8z"/></g></mask><clipPath id="af"><path d="M0 0h192v152H0z"/></clipPath><mask id="ag"><g filter="url(#b)"><path fill-opacity=".2" d="M-12.8-12.8h153.6v153.6H-12.8z"/></g></mask><clipPath id="ah"><path d="M0 0h192v152H0z"/></clipPath><mask id="ai"><g filter="url(#b)"><path fill-opacity=".2" d="M-12.8-12.8h153.6v153.6H-12.8z"/></g></mask><clipPath id="aj"><path d="M0 0h192v152H0z"/></clipPath><mask id="ak"><g filter="url(#b)"><path fill-opacity=".1" d="M-12.8-12.8h153.6v153.6H-12.8z"/></g></mask><clipPath id="al"><path d="M0 0h192v152H0z"/></clipPath><mask id="am"><g filter="url(#b)"><path fill-opacity=".1" d="M-12.8-12.8h153.6v153.6H-12.8z"/></g></mask><clipPath id="an"><path d="M0 0h192v152H0z"/></clipPath><mask id="ao"><g filter="url(#b)"><path fill-opacity=".1" d="M-12.8-12.8h153.6v153.6H-12.8z"/></g></mask><clipPath id="ap"><path d="M0 0h192v152H0z"/></clipPath><mask id="aq"><g filter="url(#b)"><path fill-opacity=".1" d="M-12.8-12.8h153.6v153.6H-12.8z"/></g></mask><clipPath id="ar"><path d="M0 0h192v152H0z"/></clipPath><linearGradient id="as" x1="32" x2="32" y1="32" y2="36" gradientUnits="userSpaceOnUse"><stop offset="0" stop-color="#5e5c64"/><stop offset="1" stop-color="#3d3846"/></linearGradient><mask id="at"><g filter="url(#b)"><path fill-opacity=".5" d="M-12.8-12.8h153.6v153.6H-12.8z"/></g></mask><clipPath id="au"><path d="M0 0h192v152H0z"/></clipPath><mask id="av"><g filter="url(#b)"><path fill-opacity=".5" d="M-12.8-12.8h153.6v153.6H-12.8z"/></g></mask><clipPath id="aw"><path d="M0 0h192v152H0z"/></clipPath><mask id="ax"><g filter="url(#b)"><path fill-opacity=".5" d="M-12.8-12.8h153.6v153.6H-12.8z"/></g></mask><clipPath id="ay"><path d="M0 0h192v152H0z"/></clipPath><mask id="az"><g filter="url(#b)"><path fill-opacity=".5" d="M-12.8-12.8h153.6v153.6H-12.8z"/></g></mask><clipPath id="aA"><path d="M0 0h192v152H0z"/></clipPath><mask id="aB"><g filter="url(#b)"><path fill-opacity=".5" d="M-12.8-12.8h153.6v153.6H-12.8z"/></g></mask><clipPath id="aC"><path d="M0 0h192v152H0z"/></clipPath><mask id="aD"><g filter="url(#b)"><path fill-opacity=".5" d="M-12.8-12.8h153.6v153.6H-12.8z"/></g></mask><clipPath id="aE"><path d="M0 0h192v152H0z"/></clipPath><mask id="aF"><g filter="url(#b)"><path fill-opacity=".5" d="M-12.8-12.8h153.6v153.6H-12.8z"/></g></mask><clipPath id="aG"><path d="M0 0h192v152H0z"/></clipPath><mask id="aH"><g filter="url(#b)"><path fill-opacity=".5" d="M-12.8-12.8h153.6v153.6H-12.8z"/></g></mask><clipPath id="aI"><path d="M0 0h192v152H0z"/></clipPath><mask id="aJ"><g filter="url(#b)"><path fill-opacity=".5" d="M-12.8-12.8h153.6v153.6H-12.8z"/></g></mask><clipPath id="aK"><path d="M0 0h192v152H0z"/></clipPath><mask id="aL"><g filter="url(#b)"><path fill-opacity=".5" d="M-12.8-12.8h153.6v153.6H-12.8z"/></g></mask><clipPath id="aM"><path d="M0 0h192v152H0z"/></clipPath><mask id="aN"><g filter="url(#b)"><path fill-opacity=".5" d="M-12.8-12.8h153.6v153.6H-12.8z"/></g></mask><clipPath id="aO"><path d="M0 0h192v152H0z"/></clipPath><mask id="aP"><g filter="url(#b)"><path fill-opacity=".5" d="M-12.8-12.8h153.6v153.6H-12.8z"/></g></mask><clipPath id="aQ"><path d="M0 0h192v152H0z"/></clipPath><mask id="aR"><g filter="url(#b)"><path fill-opacity=".5" d="M-12.8-12.8h153.6v153.6H-12.8z"/></g></mask><clipPath id="aS"><path d="M0 0h192v152H0z"/></clipPath><mask id="aT"><g filter="url(#b)"><path fill-opacity=".5" d="M-12.8-12.8h153.6v153.6H-12.8z"/></g></mask><clipPath id="aU"><path d="M0 0h192v152H0z"/></clipPath><mask id="aV"><g filter="url(#b)"><path fill-opacity=".5" d="M-12.8-12.8h153.6v153.6H-12.8z"/></g></mask><clipPath id="aW"><path d="M0 0h192v152H0z"/></clipPath><mask id="aX"><g filter="url(#b)"><path fill-opacity=".5" d="M-12.8-12.8h153.6v153.6H-12.8z"/></g></mask><clipPath id="aY"><path d="M0 0h192v152H0z"/></clipPath><mask id="aZ"><g filter="url(#b)"><path fill-opacity=".5" d="M-12.8-12.8h153.6v153.6H-12.8z"/></g></mask><clipPath id="ba"><path d="M0 0h192v152H0z"/></clipPath><mask id="bb"><g filter="url(#b)"><path fill-opacity=".5" d="M-12.8-12.8h153.6v153.6H-12.8z"/></g></mask><clipPath id="bc"><path d="M0 0h192v152H0z"/></clipPath><mask id="bd"><g filter="url(#b)"><path fill-opacity=".5" d="M-12.8-12.8h153.6v153.6H-12.8z"/></g></mask><clipPath id="be"><path d="M0 0h192v152H0z"/></clipPath><mask id="bf"><g filter="url(#b)"><path fill-opacity=".5" d="M-12.8-12.8h153.6v153.6H-12.8z"/></g></mask><clipPath id="bg"><path d="M0 0h192v152H0z"/></clipPath><mask id="bh"><g filter="url(#b)"><path fill-opacity=".5" d="M-12.8-12.8h153.6v153.6H-12.8z"/></g></mask><clipPath id="bi"><path d="M0 0h192v152H0z"/></clipPath><mask id="bj"><g filter="url(#b)"><path fill-opacity=".5" d="M-12.8-12.8h153.6v153.6H-12.8z"/></g></mask><clipPath id="bk"><path d="M0 0h192v152H0z"/></clipPath><mask id="bl"><g filter="url(#b)"><path fill-opacity=".1" d="M-12.8-12.8h153.6v153.6H-12.8z"/></g></mask><clipPath id="bm"><path d="M0 0h192v152H0z"/></clipPath><path fill="url(#c)" d="M16 36h96a8 8 0 0 1 8 8v64a8 8 0 0 1-8 8H16a8 8 0 0 1-8-8V44a8 8 0 0 1 8-8m0 0"/><path fill="url(#d)" d="M32 110c0 2.21-1.79 4-4 4s-4-1.79-4-4 1.79-4 4-4 4 1.79 4 4m0 0"/><path fill="#77767b" d="M16 28h96a8 8 0 0 1 8 8v60a8 8 0 0 1-8 8H16a8 8 0 0 1-8-8V36a8 8 0 0 1 8-8m0 0"/><path fill="#3d3846" d="M18 32h28a2 2 0 0 1 2 2v4a2 2 0 0 1-2 2H18a2 2 0 0 1-2-2v-4a2 2 0 0 1 2-2m0 0"/><path fill="#ed3390" d="M82 86h28a2 2 0 0 1 2 2v8a2 2 0 0 1-2 2H82a2 2 0 0 1-2-2v-8a2 2 0 0 1 2-2m0 0"/><path fill="url(#e)" d="M82 84h28a2 2 0 0 1 2 2v8a2 2 0 0 1-2 2H82a2 2 0 0 1-2-2v-8a2 2 0 0 1 2-2m0 0"/><path fill="#57e389" d="M82 68h28a2 2 0 0 1 2 2v8a2 2 0 0 1-2 2H82a2 2 0 0 1-2-2v-8a2 2 0 0 1 2-2m0 0"/><path fill="url(#f)" d="M82 66h28a2 2 0 0 1 2 2v8a2 2 0 0 1-2 2H82a2 2 0 0 1-2-2v-8a2 2 0 0 1 2-2m0 0"/><path fill="#62a0ea" d="M82 50h10a2 2 0 0 1 2 2v8a2 2 0 0 1-2 2H82a2 2 0 0 1-2-2v-8a2 2 0 0 1 2-2m0 0"/><path fill="url(#g)" d="M82 48h10a2 2 0 0 1 2 2v8a2 2 0 0 1-2 2H82a2 2 0 0 1-2-2v-8a2 2 0 0 1 2-2m0 0"/><path fill="#ffa348" d="M100 50h10a2 2 0 0 1 2 2v8a2 2 0 0 1-2 2h-10a2 2 0 0 1-2-2v-8a2 2 0 0 1 2-2m0 0"/><path fill="url(#h)" d="M100 48h10a2 2 0 0 1 2 2v8a2 2 0 0 1-2 2h-10a2 2 0 0 1-2-2v-8a2 2 0 0 1 2-2m0 0"/><path fill="#9a9996" d="M54 50h10a2 2 0 0 1 2 2v8a2 2 0 0 1-2 2H54a2 2 0 0 1-2-2v-8a2 2 0 0 1 2-2m0 0"/><path fill="url(#i)" d="M54 48h10a2 2 0 0 1 2 2v8a2 2 0 0 1-2 2H54a2 2 0 0 1-2-2v-8a2 2 0 0 1 2-2m0 0"/><path fill="#9a9996" d="M54 68h10a2 2 0 0 1 2 2v8a2 2 0 0 1-2 2H54a2 2 0 0 1-2-2v-8a2 2 0 0 1 2-2m0 0"/><path fill="url(#k)" d="M54 66h10a2 2 0 0 1 2 2v8a2 2 0 0 1-2 2H54a2 2 0 0 1-2-2v-8a2 2 0 0 1 2-2m0 0"/><path fill="#9a9996" d="M54 86h10a2 2 0 0 1 2 2v8a2 2 0 0 1-2 2H54a2 2 0 0 1-2-2v-8a2 2 0 0 1 2-2m0 0"/><path fill="url(#l)" d="M54 84h10a2 2 0 0 1 2 2v8a2 2 0 0 1-2 2H54a2 2 0 0 1-2-2v-8a2 2 0 0 1 2-2m0 0"/><path fill="#9a9996" d="M36 86h10a2 2 0 0 1 2 2v8a2 2 0 0 1-2 2H36a2 2 0 0 1-2-2v-8a2 2 0 0 1 2-2m0 0"/><path fill="url(#m)" d="M36 84h10a2 2 0 0 1 2 2v8a2 2 0 0 1-2 2H36a2 2 0 0 1-2-2v-8a2 2 0 0 1 2-2m0 0"/><path fill="#9a9996" d="M36 68h10a2 2 0 0 1 2 2v8a2 2 0 0 1-2 2H36a2 2 0 0 1-2-2v-8a2 2 0 0 1 2-2m0 0"/><path fill="url(#n)" d="M36 66h10a2 2 0 0 1 2 2v8a2 2 0 0 1-2 2H36a2 2 0 0 1-2-2v-8a2 2 0 0 1 2-2m0 0"/><path fill="#9a9996" d="M36 50h10a2 2 0 0 1 2 2v8a2 2 0 0 1-2 2H36a2 2 0 0 1-2-2v-8a2 2 0 0 1 2-2m0 0"/><path fill="url(#o)" d="M36 48h10a2 2 0 0 1 2 2v8a2 2 0 0 1-2 2H36a2 2 0 0 1-2-2v-8a2 2 0 0 1 2-2m0 0"/><path fill="#9a9996" d="M18 50h10a2 2 0 0 1 2 2v8a2 2 0 0 1-2 2H18a2 2 0 0 1-2-2v-8a2 2 0 0 1 2-2m0 0"/><path fill="url(#p)" d="M18 48h10a2 2 0 0 1 2 2v8a2 2 0 0 1-2 2H18a2 2 0 0 1-2-2v-8a2 2 0 0 1 2-2m0 0"/><path fill="#9a9996" d="M18 68h10a2 2 0 0 1 2 2v8a2 2 0 0 1-2 2H18a2 2 0 0 1-2-2v-8a2 2 0 0 1 2-2m0 0"/><path fill="url(#q)" d="M18 66h10a2 2 0 0 1 2 2v8a2 2 0 0 1-2 2H18a2 2 0 0 1-2-2v-8a2 2 0 0 1 2-2m0 0"/><path fill="#9a9996" d="M18 86h10a2 2 0 0 1 2 2v8a2 2 0 0 1-2 2H18a2 2 0 0 1-2-2v-8a2 2 0 0 1 2-2m0 0"/><path fill="url(#r)" d="M18 84h10a2 2 0 0 1 2 2v8a2 2 0 0 1-2 2H18a2 2 0 0 1-2-2v-8a2 2 0 0 1 2-2m0 0"/><g mask="url(#s)"><g clip-path="url(#t)" transform="translate(-8 -16)"><path fill="#fff" d="M26 64c-1.11 0-2 .89-2 2v1c0-1.11.89-2 2-2h10c1.11 0 2 .89 2 2v-1c0-1.11-.89-2-2-2zm0 0"/></g></g><g mask="url(#u)"><g clip-path="url(#v)" transform="translate(-8 -16)"><path fill="#fff" d="M44 64c-1.11 0-2 .89-2 2v1c0-1.11.89-2 2-2h10c1.11 0 2 .89 2 2v-1c0-1.11-.89-2-2-2zm0 0"/></g></g><g mask="url(#w)"><g clip-path="url(#x)" transform="translate(-8 -16)"><path fill="#fff" d="M62 64c-1.11 0-2 .89-2 2v1c0-1.11.89-2 2-2h10c1.11 0 2 .89 2 2v-1c0-1.11-.89-2-2-2zm0 0"/></g></g><g mask="url(#y)"><g clip-path="url(#z)" transform="translate(-8 -16)"><path fill="#fff" d="M26 82c-1.11 0-2 .89-2 2v1c0-1.11.89-2 2-2h10c1.11 0 2 .89 2 2v-1c0-1.11-.89-2-2-2zm0 0"/></g></g><g mask="url(#A)"><g clip-path="url(#B)" transform="translate(-8 -16)"><path fill="#fff" d="M44 82c-1.11 0-2 .89-2 2v1c0-1.11.89-2 2-2h10c1.11 0 2 .89 2 2v-1c0-1.11-.89-2-2-2zm0 0"/></g></g><g mask="url(#C)"><g clip-path="url(#D)" transform="translate(-8 -16)"><path fill="#fff" d="M62 82c-1.11 0-2 .89-2 2v1c0-1.11.89-2 2-2h10c1.11 0 2 .89 2 2v-1c0-1.11-.89-2-2-2zm0 0"/></g></g><g mask="url(#E)"><g clip-path="url(#F)" transform="translate(-8 -16)"><path fill="#fff" d="M26 100c-1.11 0-2 .89-2 2v1c0-1.11.89-2 2-2h10c1.11 0 2 .89 2 2v-1c0-1.11-.89-2-2-2zm0 0"/></g></g><g mask="url(#G)"><g clip-path="url(#H)" transform="translate(-8 -16)"><path fill="#fff" d="M44 100c-1.11 0-2 .89-2 2v1c0-1.11.89-2 2-2h10c1.11 0 2 .89 2 2v-1c0-1.11-.89-2-2-2zm0 0"/></g></g><g mask="url(#I)"><g clip-path="url(#J)" transform="translate(-8 -16)"><path fill="#fff" d="M62 100c-1.11 0-2 .89-2 2v1c0-1.11.89-2 2-2h10c1.11 0 2 .89 2 2v-1c0-1.11-.89-2-2-2zm0 0"/></g></g><g mask="url(#K)"><g clip-path="url(#L)" transform="translate(-8 -16)"><path d="M24 74v1c0 1.11.89 2 2 2h10c1.11 0 2-.89 2-2v-1c0 1.11-.89 2-2 2H26c-1.11 0-2-.89-2-2m0 0"/></g></g><g mask="url(#M)"><g clip-path="url(#N)" transform="translate(-8 -16)"><path d="M42 74v1c0 1.11.89 2 2 2h10c1.11 0 2-.89 2-2v-1c0 1.11-.89 2-2 2H44c-1.11 0-2-.89-2-2m0 0"/></g></g><g mask="url(#O)"><g clip-path="url(#P)" transform="translate(-8 -16)"><path d="M60 74v1c0 1.11.89 2 2 2h10c1.11 0 2-.89 2-2v-1c0 1.11-.89 2-2 2H62c-1.11 0-2-.89-2-2m0 0"/></g></g><g mask="url(#Q)"><g clip-path="url(#R)" transform="translate(-8 -16)"><path d="M24 92v1c0 1.11.89 2 2 2h10c1.11 0 2-.89 2-2v-1c0 1.11-.89 2-2 2H26c-1.11 0-2-.89-2-2m0 0"/></g></g><g mask="url(#S)"><g clip-path="url(#T)" transform="translate(-8 -16)"><path d="M42 92v1c0 1.11.89 2 2 2h10c1.11 0 2-.89 2-2v-1c0 1.11-.89 2-2 2H44c-1.11 0-2-.89-2-2m0 0"/></g></g><g mask="url(#U)"><g clip-path="url(#V)" transform="translate(-8 -16)"><path d="M60 92v1c0 1.11.89 2 2 2h10c1.11 0 2-.89 2-2v-1c0 1.11-.89 2-2 2H62c-1.11 0-2-.89-2-2m0 0"/></g></g><g mask="url(#W)"><g clip-path="url(#X)" transform="translate(-8 -16)"><path d="M24 110v1c0 1.11.89 2 2 2h10c1.11 0 2-.89 2-2v-1c0 1.11-.89 2-2 2H26c-1.11 0-2-.89-2-2m0 0"/></g></g><g mask="url(#Y)"><g clip-path="url(#Z)" transform="translate(-8 -16)"><path d="M42 110v1c0 1.11.89 2 2 2h10c1.11 0 2-.89 2-2v-1c0 1.11-.89 2-2 2H44c-1.11 0-2-.89-2-2m0 0"/></g></g><g mask="url(#aa)"><g clip-path="url(#ab)" transform="translate(-8 -16)"><path d="M60 110v1c0 1.11.89 2 2 2h10c1.11 0 2-.89 2-2v-1c0 1.11-.89 2-2 2H62c-1.11 0-2-.89-2-2m0 0"/></g></g><g mask="url(#ac)"><g clip-path="url(#ad)" transform="translate(-8 -16)"><path fill="#fff" d="M90 64c-1.11 0-2 .89-2 2v1c0-1.11.89-2 2-2h10c1.11 0 2 .89 2 2v-1c0-1.11-.89-2-2-2zm0 0"/></g></g><g mask="url(#ae)"><g clip-path="url(#af)" transform="translate(-8 -16)"><path fill="#fff" d="M108 64c-1.11 0-2 .89-2 2v1c0-1.11.89-2 2-2h10c1.11 0 2 .89 2 2v-1c0-1.11-.89-2-2-2zm0 0"/></g></g><g mask="url(#ag)"><g clip-path="url(#ah)" transform="translate(-8 -16)"><path fill="#fff" d="M90 82c-1.11 0-2 .89-2 2v1c0-1.11.89-2 2-2h28c1.11 0 2 .89 2 2v-1c0-1.11-.89-2-2-2zm0 0"/></g></g><g mask="url(#ai)"><g clip-path="url(#aj)" transform="translate(-8 -16)"><path fill="#fff" d="M90 100c-1.11 0-2 .89-2 2v1c0-1.11.89-2 2-2h28c1.11 0 2 .89 2 2v-1c0-1.11-.89-2-2-2zm0 0"/></g></g><g mask="url(#ak)"><g clip-path="url(#al)" transform="translate(-8 -16)"><path d="M88 74v1c0 1.11.89 2 2 2h10c1.11 0 2-.89 2-2v-1c0 1.11-.89 2-2 2H90c-1.11 0-2-.89-2-2m0 0"/></g></g><g mask="url(#am)"><g clip-path="url(#an)" transform="translate(-8 -16)"><path d="M106 74v1c0 1.11.89 2 2 2h10c1.11 0 2-.89 2-2v-1c0 1.11-.89 2-2 2h-10c-1.11 0-2-.89-2-2m0 0"/></g></g><g mask="url(#ao)"><g clip-path="url(#ap)" transform="translate(-8 -16)"><path d="M88 92v1c0 1.11.89 2 2 2h28c1.11 0 2-.89 2-2v-1c0 1.11-.89 2-2 2H90c-1.11 0-2-.89-2-2m0 0"/></g></g><g mask="url(#aq)"><g clip-path="url(#ar)" transform="translate(-8 -16)"><path d="M88 110v1c0 1.11.89 2 2 2h28c1.11 0 2-.89 2-2v-1c0 1.11-.89 2-2 2H90c-1.11 0-2-.89-2-2m0 0"/></g></g><path fill="#5e5c64" d="M18 30h28a2 2 0 0 1 2 2v4a2 2 0 0 1-2 2H18a2 2 0 0 1-2-2v-4a2 2 0 0 1 2-2m0 0"/><path fill="url(#as)" d="M18 32h28v4H18zm0 0"/><path fill="#5e5c64" d="M60 8h56c2.21 0 4 1.79 4 4v24c0 2.21-1.79 4-4 4H60c-2.21 0-4-1.79-4-4V12c0-2.21 1.79-4 4-4m0 0"/><path d="M60 12h56a2 2 0 0 1 2 2v12a2 2 0 0 1-2 2H60a2 2 0 0 1-2-2V14a2 2 0 0 1 2-2m0 0"/><path fill="#5e5c64" d="M56 28h64v12H56zm0 0"/><path fill="#3d3846" d="M56 38v2h64v-2zm0 0"/><path fill="#33d17a" d="m66 21.5 1-1 1 1v2l-1 1-1-1zM61.5 15l1-1h4l1 1-1 1h-4zm-1 10 1-1h4l1 1-1 1h-4zm1-5 1-1h3l1 1-1 1h-3zM60 16.5l1-1 1 1v2l-1 1-1-1zm16 5 1-1 1 1v2l-1 1-1-1zM71.5 15l1-1h3l1 1-1 1h-3zm0 10 1-1h3l1 1-1 1h-3zm4.5-8.5 1-1 1 1v2l-1 1-1-1zm0 0"/><g mask="url(#at)"><g clip-path="url(#au)" transform="translate(-8 -16)"><path fill="#33d17a" d="m79.5 36 1-1h3l1 1-1 1h-3zm0 0"/></g></g><path fill="#33d17a" d="m70 21.5 1-1 1 1v2l-1 1-1-1zm0-5 1-1 1 1v2l-1 1-1-1zm0 0"/><g mask="url(#av)"><g clip-path="url(#aw)" transform="translate(-8 -16)"><path fill="#33d17a" d="m94 37.5 1-1 1 1v2l-1 1-1-1zm0 0"/></g></g><g mask="url(#ax)"><g clip-path="url(#ay)" transform="translate(-8 -16)"><path fill="#33d17a" d="m89.5 31 1-1h3l1 1-1 1h-3zm0 0"/></g></g><g mask="url(#az)"><g clip-path="url(#aA)" transform="translate(-8 -16)"><path fill="#33d17a" d="m89.5 41 1-1h3l1 1-1 1h-3zm0 0"/></g></g><g mask="url(#aB)"><g clip-path="url(#aC)" transform="translate(-8 -16)"><path fill="#33d17a" d="m94 32.5 1-1 1 1v2l-1 1-1-1zm0 0"/></g></g><g mask="url(#aD)"><g clip-path="url(#aE)" transform="translate(-8 -16)"><path fill="#33d17a" d="m89.5 36 1-1h3l1 1-1 1h-3zm0 0"/></g></g><g mask="url(#aF)"><g clip-path="url(#aG)" transform="translate(-8 -16)"><path fill="#33d17a" d="m88 37.5 1-1 1 1v2l-1 1-1-1zm0 0"/></g></g><g mask="url(#aH)"><g clip-path="url(#aI)" transform="translate(-8 -16)"><path fill="#33d17a" d="m88 32.5 1-1 1 1v2l-1 1-1-1zm0 0"/></g></g><g mask="url(#aJ)"><g clip-path="url(#aK)" transform="translate(-8 -16)"><path fill="#33d17a" d="m104 37.5 1-1 1 1v2l-1 1-1-1zm0 0"/></g></g><g mask="url(#aL)"><g clip-path="url(#aM)" transform="translate(-8 -16)"><path fill="#33d17a" d="m99.5 31 1-1h3l1 1-1 1h-3zm0 0"/></g></g><g mask="url(#aN)"><g clip-path="url(#aO)" transform="translate(-8 -16)"><path fill="#33d17a" d="m99.5 41 1-1h3l1 1-1 1h-3zm0 0"/></g></g><g mask="url(#aP)"><g clip-path="url(#aQ)" transform="translate(-8 -16)"><path fill="#33d17a" d="m104 32.5 1-1 1 1v2l-1 1-1-1zm0 0"/></g></g><g mask="url(#aR)"><g clip-path="url(#aS)" transform="translate(-8 -16)"><path fill="#33d17a" d="m99.5 36 1-1h3l1 1-1 1h-3zm0 0"/></g></g><g mask="url(#aT)"><g clip-path="url(#aU)" transform="translate(-8 -16)"><path fill="#33d17a" d="m98 37.5 1-1 1 1v2l-1 1-1-1zm0 0"/></g></g><g mask="url(#aV)"><g clip-path="url(#aW)" transform="translate(-8 -16)"><path fill="#33d17a" d="m98 32.5 1-1 1 1v2l-1 1-1-1zm0 0"/></g></g><g mask="url(#aX)"><g clip-path="url(#aY)" transform="translate(-8 -16)"><path fill="#33d17a" d="m114 37.5 1-1 1 1v2l-1 1-1-1zm0 0"/></g></g><g mask="url(#aZ)"><g clip-path="url(#ba)" transform="translate(-8 -16)"><path fill="#33d17a" d="m109.5 31 1-1h3l1 1-1 1h-3zm0 0"/></g></g><g mask="url(#bb)"><g clip-path="url(#bc)" transform="translate(-8 -16)"><path fill="#33d17a" d="m109.5 41 1-1h3l1 1-1 1h-3zm0 0"/></g></g><g mask="url(#bd)"><g clip-path="url(#be)" transform="translate(-8 -16)"><path fill="#33d17a" d="m114 32.5 1-1 1 1v2l-1 1-1-1zm0 0"/></g></g><g mask="url(#bf)"><g clip-path="url(#bg)" transform="translate(-8 -16)"><path fill="#33d17a" d="m109.5 36 1-1h3l1 1-1 1h-3zm0 0"/></g></g><g mask="url(#bh)"><g clip-path="url(#bi)" transform="translate(-8 -16)"><path fill="#33d17a" d="m108 37.5 1-1 1 1v2l-1 1-1-1zm0 0"/></g></g><g mask="url(#bj)"><g clip-path="url(#bk)" transform="translate(-8 -16)"><path fill="#33d17a" d="m108 32.5 1-1 1 1v2l-1 1-1-1zm0 0"/></g></g><path fill="#33d17a" d="M64 13v1h1v-1zm0 3v3h1v-3zm0 5v3h1v-3zm0 5v1h1v-1zm0 0"/><path fill="#c0bfbc" d="M32 111c0 2.21-1.79 4-4 4s-4-1.79-4-4 1.79-4 4-4 4 1.79 4 4m0 0"/><path fill="#deddda" d="M31 111a3 3 0 1 1-6.002-.002A3 3 0 0 1 31 111m0 0"/><path fill="#241f31" d="M27 109v1h1v1h-1v2h1v-1h1v-3zm0 0"/><g mask="url(#bl)"><g clip-path="url(#bm)" transform="translate(-8 -16)"><path d="M16 112v2c0 4.434 3.566 8 8 8h96c4.434 0 8-3.566 8-8v-2c0 4.434-3.566 8-8 8H24a7.98 7.98 0 0 1-8-8m0 0"/></g></g><path fill="#3d3846" d="M40 106h60c2.21 0 4 1.79 4 4s-1.79 4-4 4H40c-2.21 0-4-1.79-4-4s1.79-4 4-4m0 0"/><path fill="#77767b" d="M36.129 109A3.993 3.993 0 0 0 40 114h60a3.993 3.993 0 0 0 3.871-5c-.441 1.727-2 3-3.871 3H40a3.99 3.99 0 0 1-3.871-3m0 0"/><path fill="#3d3846" d="M60 10c-1.11 0-2 .89-2 2v2c0-1.11.89-2 2-2h56c1.11 0 2 .89 2 2v-2c0-1.11-.89-2-2-2zm0 0"/></svg>