<svg xmlns="http://www.w3.org/2000/svg" xmlns:xlink="http://www.w3.org/1999/xlink" width="128" height="128"><linearGradient id="b" x1="8" x2="120" y1="116" y2="116" gradientUnits="userSpaceOnUse"><stop offset="0" stop-color="#c64600"/><stop offset=".036" stop-color="#ffbe6f"/><stop offset=".071" stop-color="#e66100"/><stop offset=".929" stop-color="#ff7800"/><stop offset=".964" stop-color="#ffbe6f"/><stop offset="1" stop-color="#c64600"/></linearGradient><clipPath id="c"><path d="M12 32h104v4H12zm0 0"/></clipPath><clipPath id="d"><path d="M18 32h92c3.313 0 6 2.688 6 6v40a6 6 0 0 1-6 6H18c-3.312 0-6-2.687-6-6V38c0-3.312 2.688-6 6-6m0 0"/></clipPath><clipPath id="e"><path d="M12 40h104v4H12zm0 0"/></clipPath><clipPath id="f"><path d="M18 32h92c3.313 0 6 2.688 6 6v40a6 6 0 0 1-6 6H18c-3.312 0-6-2.687-6-6V38c0-3.312 2.688-6 6-6m0 0"/></clipPath><clipPath id="g"><path d="M12 48h104v4H12zm0 0"/></clipPath><clipPath id="h"><path d="M18 32h92c3.313 0 6 2.688 6 6v40a6 6 0 0 1-6 6H18c-3.312 0-6-2.687-6-6V38c0-3.312 2.688-6 6-6m0 0"/></clipPath><clipPath id="i"><path d="M12 56h104v4H12zm0 0"/></clipPath><clipPath id="j"><path d="M18 32h92c3.313 0 6 2.688 6 6v40a6 6 0 0 1-6 6H18c-3.312 0-6-2.687-6-6V38c0-3.312 2.688-6 6-6m0 0"/></clipPath><clipPath id="k"><path d="M12 64h104v4H12zm0 0"/></clipPath><clipPath id="l"><path d="M18 32h92c3.313 0 6 2.688 6 6v40a6 6 0 0 1-6 6H18c-3.312 0-6-2.687-6-6V38c0-3.312 2.688-6 6-6m0 0"/></clipPath><clipPath id="m"><path d="M12 72h104v4H12zm0 0"/></clipPath><clipPath id="n"><path d="M18 32h92c3.313 0 6 2.688 6 6v40a6 6 0 0 1-6 6H18c-3.312 0-6-2.687-6-6V38c0-3.312 2.688-6 6-6m0 0"/></clipPath><clipPath id="o"><path d="M12 80h104v4H12zm0 0"/></clipPath><clipPath id="p"><path d="M18 32h92c3.313 0 6 2.688 6 6v40a6 6 0 0 1-6 6H18c-3.312 0-6-2.687-6-6V38c0-3.312 2.688-6 6-6m0 0"/></clipPath><linearGradient id="q" x1="64" x2="64" y1="36" y2="80" gradientUnits="userSpaceOnUse"><stop offset="0" stop-color="#f6d32d"/><stop offset="1" stop-color="#ff7800"/></linearGradient><linearGradient id="r" x1="50" x2="50" y1="86" y2="106" gradientUnits="userSpaceOnUse"><stop offset="0" stop-color="#f6d32d"/><stop offset="1" stop-color="#f8e45c"/></linearGradient><linearGradient id="s" x1="26" x2="26" y1="86" y2="106" gradientUnits="userSpaceOnUse"><stop offset="0" stop-color="#ff7800"/><stop offset="1" stop-color="#ffa348"/></linearGradient><linearGradient id="a" gradientUnits="userSpaceOnUse"><stop offset="0" stop-color="#c0bfbc"/><stop offset=".5" stop-color="#f6f5f4"/><stop offset="1" stop-color="#c0bfbc"/></linearGradient><linearGradient xlink:href="#a" id="t" x1="102" x2="102" y1="90" y2="94"/><linearGradient xlink:href="#a" id="u" x1="88" x2="88" y1="98" y2="102"/><linearGradient xlink:href="#a" id="v" x1="74" x2="74" y1="94" y2="98"/><path fill="url(#b)" d="M16 40h96a8 8 0 0 1 8 8v60a8 8 0 0 1-8 8H16a8 8 0 0 1-8-8V48a8 8 0 0 1 8-8m0 0"/><path fill="#ffa348" d="M16 28h96a8 8 0 0 1 8 8v68a8 8 0 0 1-8 8H16a8 8 0 0 1-8-8V36a8 8 0 0 1 8-8m0 0"/><path fill="#241f31" d="M18 32h92c3.313 0 6 2.688 6 6v40a6 6 0 0 1-6 6H18c-3.312 0-6-2.687-6-6V38c0-3.312 2.688-6 6-6m0 0"/><g clip-path="url(#c)"><g clip-path="url(#d)"><path fill="#77767b" fill-opacity=".2" d="M12 32h104v4H12zm0 0"/></g></g><g clip-path="url(#e)"><g clip-path="url(#f)"><path fill="#77767b" fill-opacity=".2" d="M12 40h104v4H12zm0 0"/></g></g><g clip-path="url(#g)"><g clip-path="url(#h)"><path fill="#77767b" fill-opacity=".2" d="M12 48h104v4H12zm0 0"/></g></g><g clip-path="url(#i)"><g clip-path="url(#j)"><path fill="#77767b" fill-opacity=".2" d="M12 56h104v4H12zm0 0"/></g></g><g clip-path="url(#k)"><g clip-path="url(#l)"><path fill="#77767b" fill-opacity=".2" d="M12 64h104v4H12zm0 0"/></g></g><g clip-path="url(#m)"><g clip-path="url(#n)"><path fill="#77767b" fill-opacity=".2" d="M12 72h104v4H12zm0 0"/></g></g><g clip-path="url(#o)"><g clip-path="url(#p)"><path fill="#77767b" fill-opacity=".2" d="M12 80h104v4H12zm0 0"/></g></g><path fill="url(#q)" d="M16 72h16v8H16zm0-12h16v8H16zm0-12h16v8H16zm20 24h16v8H36zm0-12h16v8H36zm0-12h16v8H36zm0-12h16v8H36zm20 36h16v8H56zm20 0h16v8H76zm0-12h16v8H76zm0-12h16v8H76zm20 24h16v8H96zm0-12h16v8H96zm0 0"/><path fill="#f5c211" d="M60 98c0 5.523-4.477 10-10 10s-10-4.477-10-10 4.477-10 10-10 10 4.477 10 10m0 0"/><path fill="url(#r)" d="M60 96c0 5.523-4.477 10-10 10s-10-4.477-10-10 4.477-10 10-10 10 4.477 10 10m0 0"/><path fill="#e5a50a" d="M57.95 96a1 1 0 0 1-1 1H53c-.55 0-1-.45-1-1s.45-1 1-1h3.95a1 1 0 0 1 1 1m0 0"/><path fill="#e66100" d="M36 98c0 5.523-4.477 10-10 10s-10-4.477-10-10 4.477-10 10-10 10 4.477 10 10m0 0"/><path fill="url(#s)" d="M36 96c0 5.523-4.477 10-10 10s-10-4.477-10-10 4.477-10 10-10 10 4.477 10 10m0 0"/><path fill="#c64600" d="M26 88.05a1 1 0 0 1 1 1V93c0 .55-.45 1-1 1s-1-.45-1-1v-3.95a1 1 0 0 1 1-1m0 0"/><path fill="#3d3846" d="M101 88h2c.55 0 1 .45 1 1v18c0 .55-.45 1-1 1h-2c-.55 0-1-.45-1-1V89c0-.55.45-1 1-1m0 0"/><path fill="#241f31" d="M101 88c-.555 0-1 .445-1 1v2c0-.555.445-1 1-1h2c.555 0 1 .445 1 1v-2c0-.555-.445-1-1-1zm0 0"/><path fill-opacity=".2" d="M98 92h8a2 2 0 1 1 0 4h-8a2 2 0 1 1 0-4m0 0"/><path fill="url(#t)" d="M98 90h8a2 2 0 1 1 0 4h-8a2 2 0 1 1 0-4m0 0"/><path fill="#3d3846" d="M87 88h2c.55 0 1 .45 1 1v18c0 .55-.45 1-1 1h-2c-.55 0-1-.45-1-1V89c0-.55.45-1 1-1m0 0"/><path fill="#241f31" d="M87 88c-.555 0-1 .445-1 1v2c0-.555.445-1 1-1h2c.555 0 1 .445 1 1v-2c0-.555-.445-1-1-1zm0 0"/><path fill-opacity=".2" d="M84 100h8a2 2 0 1 1 0 4h-8a2 2 0 1 1 0-4m0 0"/><path fill="url(#u)" d="M84 98h8a2 2 0 1 1 0 4h-8a2 2 0 1 1 0-4m0 0"/><path fill="#3d3846" d="M73 88h2c.55 0 1 .45 1 1v18c0 .55-.45 1-1 1h-2c-.55 0-1-.45-1-1V89c0-.55.45-1 1-1m0 0"/><path fill="#241f31" d="M73 88c-.555 0-1 .445-1 1v2c0-.555.445-1 1-1h2c.555 0 1 .445 1 1v-2c0-.555-.445-1-1-1zm0 0"/><path fill-opacity=".2" d="M70 96h8a2 2 0 1 1 0 4h-8a2 2 0 1 1 0-4m0 0"/><path fill="url(#v)" d="M70 94h8a2 2 0 1 1 0 4h-8a2 2 0 1 1 0-4m0 0"/></svg>