<svg xmlns="http://www.w3.org/2000/svg" width="128" height="128"><linearGradient id="b" x1="8" x2="120" y1="116" y2="116" gradientUnits="userSpaceOnUse"><stop offset="0" stop-color="#9a9996"/><stop offset=".036" stop-color="#deddda"/><stop offset=".071" stop-color="#c0bfbc"/><stop offset=".929" stop-color="#c0bfbc"/><stop offset=".964" stop-color="#deddda"/><stop offset="1" stop-color="#9a9996"/></linearGradient><linearGradient id="c" x1="64" x2="64" y1="36" y2="72" gradientUnits="userSpaceOnUse"><stop offset="0" stop-color="#57e389"/><stop offset="1" stop-color="#26a269"/></linearGradient><filter id="a" width="100%" height="100%" x="0%" y="0%"><feColorMatrix in="SourceGraphic" values="0 0 0 0 1 0 0 0 0 1 0 0 0 0 1 0 0 0 1 0"/></filter><mask id="e"><g filter="url(#a)"><path fill-opacity=".2" d="M0 0h128v128H0z"/></g></mask><clipPath id="d"><path d="M0 0h192v152H0z"/></clipPath><mask id="g"><g filter="url(#a)"><path fill-opacity=".2" d="M0 0h128v128H0z"/></g></mask><clipPath id="f"><path d="M0 0h192v152H0z"/></clipPath><mask id="i"><g filter="url(#a)"><path fill-opacity=".2" d="M0 0h128v128H0z"/></g></mask><clipPath id="h"><path d="M0 0h192v152H0z"/></clipPath><linearGradient id="j" x1="64" x2="64" y1="82" y2="102" gradientUnits="userSpaceOnUse"><stop offset="0" stop-color="#e01b24"/><stop offset="1" stop-color="#f66151"/></linearGradient><mask id="m"><g filter="url(#a)"><path fill-opacity=".2" d="M0 0h128v128H0z"/></g></mask><clipPath id="l"><path d="M0 0h192v152H0z"/></clipPath><path fill="url(#b)" d="M16 40h96a8 8 0 0 1 8 8v60a8 8 0 0 1-8 8H16a8 8 0 0 1-8-8V48a8 8 0 0 1 8-8m0 0"/><path fill="#f6f5f4" d="M16 28h96a8 8 0 0 1 8 8v64a8 8 0 0 1-8 8H16a8 8 0 0 1-8-8V36a8 8 0 0 1 8-8m0 0"/><path fill="#deddda" d="M120 80H8v20c0 4.434 3.566 8 8 8h96c4.434 0 8-3.566 8-8zm0 0"/><path fill="url(#c)" d="M20 36h88c2.21 0 4 1.79 4 4v28c0 2.21-1.79 4-4 4H20c-2.21 0-4-1.79-4-4V40c0-2.21 1.79-4 4-4m0 0"/><g fill="#241f31" clip-path="url(#d)" mask="url(#e)" transform="translate(-8 -16)"><path d="m42 61 1-1h6l1 1-1 1h-6zm9 1 1 1v6l-1 1-1-1v-6zm-10 0 1 1v6l-1 1-1-1v-6zm10 10 1 1v6l-1 1-1-1v-6zm-10 0 1 1v6l-1 1-1-1v-6zm1 9 1-1h6l1 1-1 1h-6zm16-20 1-1h6l1 1-1 1h-6zm9 1 1 1v6l-1 1-1-1v-6zm-10 0 1 1v6l-1 1-1-1v-6zm10 10 1 1v6l-1 1-1-1v-6zm-10 0 1 1v6l-1 1-1-1v-6zm1 9 1-1h6l1 1-1 1h-6zm20-20 1-1h6l1 1-1 1h-6zm9 1 1 1v6l-1 1-1-1v-6zm0 10 1 1v6l-1 1-1-1v-6zm-9 9 1-1h6l1 1-1 1h-6zm16-20 1-1h6l1 1-1 1h-6zm9 1 1 1v6l-1 1-1-1v-6zm0 10 1 1v6l-1 1-1-1v-6zm-29-6a2 2 0 1 1-2-2 2 2 0 0 1 2 2m0 10a2 2 0 1 1-2-2 2 2 0 0 1 2 2m-16-5 1-1h6l1 1-1 1h-6zm20 0 1-1h6l1 1-1 1h-6zm15-9 1 1v6l-1 1-1-1v-6zm0 10 1 1v6l-1 1-1-1v-6zm1-1 1-1h6l1 1-1 1h-6zm0 10 1-1h6l1 1-1 1h-6zM77 62l1 1v6l-1 1-1-1v-6zm0 10 1 1v6l-1 1-1-1v-6zm-35-1 1-1h6l1 1-1 1h-6zm0 0"/></g><g clip-path="url(#f)" mask="url(#g)" transform="translate(-8 -16)"><path d="M28 52c-2.215 0-4 1.785-4 4v4c0-2.215 1.785-4 4-4h88c2.215 0 4 1.785 4 4v-4c0-2.215-1.785-4-4-4zm0 0"/></g><path fill="#c0bfbc" d="M20 36c-2.215 0-4 1.785-4 4v2c0-2.215 1.785-4 4-4h88c2.215 0 4 1.785 4 4v-2c0-2.215-1.785-4-4-4zm0 0"/><path fill="#241f31" d="m34 45 1-1h6l1 1-1 1h-6zm9 1 1 1v6l-1 1-1-1v-6zm-10 0 1 1v6l-1 1-1-1v-6zm10 10 1 1v6l-1 1-1-1v-6zm-10 0 1 1v6l-1 1-1-1v-6zm1 9 1-1h6l1 1-1 1h-6zm16-20 1-1h6l1 1-1 1h-6zm9 1 1 1v6l-1 1-1-1v-6zm-10 0 1 1v6l-1 1-1-1v-6zm10 10 1 1v6l-1 1-1-1v-6zm-10 0 1 1v6l-1 1-1-1v-6zm1 9 1-1h6l1 1-1 1h-6zm20-20 1-1h6l1 1-1 1h-6zm9 1 1 1v6l-1 1-1-1v-6zm-9 19 1-1h6l1 1-1 1h-6zm16-20 1-1h6l1 1-1 1h-6zm9 1 1 1v6l-1 1-1-1v-6zm0 10 1 1v6l-1 1-1-1v-6zm-45-1 1-1h6l1 1-1 1h-6zm20 0 1-1h6l1 1-1 1h-6zm15-9 1 1v6l-1 1-1-1v-6zm0 10 1 1v6l-1 1-1-1v-6zm1 9 1-1h6l1 1-1 1h-6zm-17-9 1 1v6l-1 1-1-1v-6zm-3-6a2 2 0 1 1-2-2 2 2 0 0 1 2 2m0 10a2 2 0 1 1-2-2 2 2 0 0 1 2 2m0 0"/><g clip-path="url(#h)" mask="url(#i)" transform="translate(-8 -16)"><path fill="#77767b" d="M16 116v2c0 4.434 3.566 8 8 8h96c4.434 0 8-3.566 8-8v-2c0 4.434-3.566 8-8 8H24a7.98 7.98 0 0 1-8-8m0 0"/></g><path fill="#c01c28" d="M36 84h56c2.21 0 4 1.79 4 4v12c0 2.21-1.79 4-4 4H36c-2.21 0-4-1.79-4-4V88c0-2.21 1.79-4 4-4m0 0"/><path fill="url(#j)" d="M36 82h56c2.21 0 4 1.79 4 4v12c0 2.21-1.79 4-4 4H36c-2.21 0-4-1.79-4-4V86c0-2.21 1.79-4 4-4m0 0"/><g clip-path="url(#l)" mask="url(#m)" transform="translate(-8 -16)"><path fill="#fff" d="M44 98c-2.215 0-4 1.785-4 4v2c0-2.215 1.785-4 4-4h56c2.215 0 4 1.785 4 4v-2c0-2.215-1.785-4-4-4zm0 0"/></g></svg>