<svg xmlns="http://www.w3.org/2000/svg" xmlns:xlink="http://www.w3.org/1999/xlink" width="128" height="128"><linearGradient id="a" gradientUnits="userSpaceOnUse"><stop offset="0" stop-color="#f9f06b"/><stop offset="1" stop-color="#33d17a"/></linearGradient><radialGradient xlink:href="#a" id="c" cx="40" cy="34" r="120"/><radialGradient xlink:href="#a" id="d" cx="40" cy="32" r="120"/><radialGradient id="e" cx="48" cy="40" r="80" gradientUnits="userSpaceOnUse"><stop offset="0" stop-color="#241f31" stop-opacity=".4"/><stop offset="1" stop-color="#241f31" stop-opacity="0"/></radialGradient><linearGradient id="b" gradientUnits="userSpaceOnUse"><stop offset="0" stop-color="#9a9996"/><stop offset=".4" stop-color="#deddda"/><stop offset="1" stop-color="#77767b"/></linearGradient><linearGradient xlink:href="#b" id="f" x1="112" x2="120" y1="216" y2="216" gradientTransform="rotate(45 207.74 106)scale(1 .77778)"/><linearGradient id="g" x1="112" x2="120" y1="216" y2="216" gradientTransform="matrix(1 0 0 .88889 0 -152)" gradientUnits="userSpaceOnUse"><stop offset="0" stop-color="#9a9996"/><stop offset=".5" stop-color="#deddda"/><stop offset="1" stop-color="#77767b"/></linearGradient><linearGradient id="h" x1="116" x2="116" y1="0" y2="24" gradientUnits="userSpaceOnUse"><stop offset="0" stop-color="#c0bfbc"/><stop offset="1" stop-color="#deddda"/></linearGradient><linearGradient xlink:href="#b" id="i" x1="96" x2="100" y1="295" y2="295" gradientTransform="rotate(45 674.34 324.728)scale(1 2)"/><linearGradient id="j" x1="104" x2="106" y1="274" y2="274" gradientTransform="rotate(-45 -1.087 156.34)scale(1 .66667)" gradientUnits="userSpaceOnUse"><stop offset="0" stop-color="#3d3846" stop-opacity=".98"/><stop offset=".6" stop-color="#9a9996"/><stop offset="1" stop-color="#5e5c64"/></linearGradient><linearGradient id="k" x1="245.73" x2="257.73" y1="132.51" y2="132.51" gradientTransform="rotate(45 211.037 -84.586)" gradientUnits="userSpaceOnUse"><stop offset="0" stop-color="#5e5c64"/><stop offset=".4" stop-color="#9a9996"/><stop offset="1" stop-color="#3d3846" stop-opacity=".98"/></linearGradient><path fill="url(#c)" d="M124 65c0 33.137-26.863 60-60 60S4 98.137 4 65 30.863 5 64 5s60 26.863 60 60m0 0"/><path fill="url(#d)" d="M124 63c0 33.137-26.863 60-60 60S4 96.137 4 63 30.863 3 64 3s60 26.863 60 60m0 0"/><path fill-opacity=".2" d="M123.96 63.512C123.685 96.434 96.927 122.98 64 123c-32.723-.035-59.383-26.281-59.93-59-.023.332-.05.668-.07 1 0 33.137 26.863 60 60 60s60-26.863 60-60a95 95 0 0 0-.035-1.488zm0 0"/><path fill="#fff" fill-opacity=".4" d="M64 47c-8.836 0-16 7.164-16 16s7.164 16 16 16 16-7.164 16-16-7.164-16-16-16m0 2c7.73 0 14 6.27 14 14s-6.27 14-14 14-14-6.27-14-14 6.27-14 14-14m0 0"/><path fill="#fff" fill-opacity=".2" d="M78 63c0 7.73-6.27 14-14 14s-14-6.27-14-14 6.27-14 14-14 14 6.27 14 14m0 0"/><path fill="#241f31" d="M67 63a3 3 0 1 1-6.002-.002A3 3 0 0 1 67 63m0 0"/><g fill="url(#e)"><path d="M64 14c-27.05 0-49 21.95-49 49s21.95 49 49 49 49-21.95 49-49-21.95-49-49-49m0 2c25.969 0 47 21.031 47 47s-21.031 47-47 47-47-21.031-47-47 21.031-47 47-47m0 0"/><path d="M64 20c-23.738 0-43 19.262-43 43s19.262 43 43 43 43-19.262 43-43-19.262-43-43-43m0 2c22.656 0 41 18.344 41 41s-18.344 41-41 41-41-18.344-41-41 18.344-41 41-41m0 0"/><path d="M64 26c-20.422 0-37 16.578-37 37s16.578 37 37 37 37-16.578 37-37-16.578-37-37-37m0 2c19.34 0 35 15.66 35 35S83.34 98 64 98 29 82.34 29 63s15.66-35 35-35m0 0"/><path d="M64 32c-17.11 0-31 13.89-31 31s13.89 31 31 31 31-13.89 31-31-13.89-31-31-31m0 2c16.027 0 29 12.973 29 29S80.027 92 64 92 35 79.027 35 63s12.973-29 29-29m0 0"/><path d="M64 38c-13.797 0-25 11.203-25 25s11.203 25 25 25 25-11.203 25-25-11.203-25-25-25m0 2c12.715 0 23 10.285 23 23S76.715 86 64 86 41 75.715 41 63s10.285-23 23-23m0 0"/></g><path fill="#fff" fill-opacity=".4" d="M64 3C30.863 3 4 29.863 4 63s26.863 60 60 60 60-26.863 60-60S97.137 3 64 3m0 4c30.93 0 56 25.07 56 56s-25.07 56-56 56S8 93.93 8 63 33.07 7 64 7m0 0"/><path fill-opacity=".2" d="M116 10c-2.215 0-4 1.785-4 4v54.344L90.547 89.797a2.004 2.004 0 0 0-2.832 0l-11.313 11.316a1.99 1.99 0 0 0 0 2.828l1.414 1.414-2.828 2.829a1.99 1.99 0 0 0 0 2.828 1.99 1.99 0 0 0 2.828 0l2.829-2.828 1.414 1.414a1.99 1.99 0 0 0 2.828 0l6.949-6.95 2.121 2.122c.395.39 1.023.39 1.418 0a.996.996 0 0 0-.004-1.415l-2.121-2.12 2.95-2.95a1.996 1.996 0 0 0 .003-2.828l22.625-22.629A3.98 3.98 0 0 0 120 69.926V14c0-2.215-1.785-4-4-4m0 0"/><path fill="#c0bfbc" d="M128 14c0 6.629-5.371 12-12 12s-12-5.371-12-12 5.371-12 12-12 12 5.371 12 12m0 0"/><path fill="url(#f)" d="M118.828 65.172a4 4 0 0 1 0 5.656L84.887 104.77a4 4 0 0 1-5.657-5.657l33.942-33.941a4 4 0 0 1 5.656 0m0 0"/><path fill="url(#g)" d="M116 8c-2.215 0-4 1.785-4 4v54.344L120 68V12c0-2.215-1.785-4-4-4m0 0"/><path fill="#c0bfbc" d="M112 20h8a2 2 0 0 1 2 2v8a2 2 0 0 1-2 2h-8a2 2 0 0 1-2-2v-8a2 2 0 0 1 2-2m0 0"/><path fill="url(#h)" d="M128 12c0 6.629-5.371 12-12 12s-12-5.371-12-12 5.371-12 12-12 12 5.371 12 12m0 0"/><path fill="#fff" fill-opacity=".2" d="M127.941 10.824A12 12 0 0 1 116 22c-6.227-.016-11.41-4.793-11.926-11q-.057.497-.074 1c0 6.629 5.371 12 12 12s12-5.371 12-12q0-.591-.059-1.176m0 0"/><path fill="#9a9996" d="M110 28v2c0 1.11.89 2 2 2h8c1.11 0 2-.89 2-2v-2c0 1.11-.89 2-2 2h-8c-1.11 0-2-.89-2-2m0 0"/><path fill="url(#i)" d="M83.473 100.527a2 2 0 0 1 0 2.828l-5.657 5.657a2 2 0 1 1-2.828-2.828l5.657-5.657a2 2 0 0 1 2.828 0m0 0"/><path fill="url(#j)" d="M89.715 97.113a1 1 0 0 1 1.414 0l4.242 4.242a1 1 0 1 1-1.414 1.415l-4.242-4.243a1 1 0 0 1 0-1.414m0 0"/><path fill="url(#k)" d="m90.543 87.8 5.656 5.657a2 2 0 0 1 0 2.828l-11.312 11.313a2 2 0 0 1-2.828 0l-5.657-5.657a2 2 0 0 1 0-2.828l11.313-11.312a2 2 0 0 1 2.828 0m0 0"/></svg>