<svg xmlns="http://www.w3.org/2000/svg" xmlns:xlink="http://www.w3.org/1999/xlink" width="128" height="128"><clipPath id="c"><path d="M8 28h112v16H8zm0 0"/></clipPath><clipPath id="d"><path d="M16 28h96a8 8 0 0 1 8 8v72a8 8 0 0 1-8 8H16a8 8 0 0 1-8-8V36a8 8 0 0 1 8-8m0 0"/></clipPath><clipPath id="e"><path d="M8 28h112v88H8zm0 0"/></clipPath><clipPath id="f"><path d="M16 28h96a8 8 0 0 1 8 8v72a8 8 0 0 1-8 8H16a8 8 0 0 1-8-8V36a8 8 0 0 1 8-8m0 0"/></clipPath><filter id="a" width="100%" height="100%" x="0%" y="0%"><feColorMatrix in="SourceGraphic" values="0 0 0 0 1 0 0 0 0 1 0 0 0 0 1 0 0 0 1 0"/></filter><mask id="h"><g filter="url(#a)"><path fill-opacity=".6" d="M0 0h128v128H0z"/></g></mask><clipPath id="g"><path d="M0 0h192v152H0z"/></clipPath><linearGradient id="b" gradientUnits="userSpaceOnUse"><stop offset="0" stop-color="#9a9996"/><stop offset=".5" stop-color="#fff"/><stop offset="1" stop-color="#c0bfbc"/></linearGradient><linearGradient xlink:href="#b" id="i" x1="848.422" x2="848.422" y1="232" y2="228" gradientTransform="matrix(.41984 -.41984 1.06067 1.06067 -514.66 161.426)"/><linearGradient xlink:href="#b" id="j" x1="853.474" x2="863.58" y1="237.333" y2="237.333" gradientTransform="matrix(.41984 -.41984 1.06067 1.06067 -514.66 161.426)"/><linearGradient xlink:href="#b" id="k" x1="823.159" x2="823.159" y1="242.667" y2="246.667" gradientTransform="matrix(.41984 -.41984 1.06067 1.06067 -515.367 160.719)"/><linearGradient xlink:href="#b" id="m" x1="782.737" x2="794.527" y1="248.667" y2="248.667" gradientTransform="rotate(-45 -95.182 623.031)scale(.50893 1.50001)"/><linearGradient id="n" x1="483.447" x2="497.447" y1="288.671" y2="288.671" gradientTransform="matrix(.60609 -.60609 .7464 .7464 -415.912 194.6)" gradientUnits="userSpaceOnUse"><stop offset="0" stop-color="#865e3c"/><stop offset=".5" stop-color="#b5835a"/><stop offset="1" stop-color="#865e3c"/></linearGradient><linearGradient id="p" x1="102.667" x2="102.667" y1="47" y2="65" gradientTransform="rotate(-45 110.436 238.956)scale(1.5 1.55556)" gradientUnits="userSpaceOnUse"><stop offset="0" stop-color="#1c71d8"/><stop offset=".5" stop-color="#3584e4"/><stop offset="1" stop-color="#1a5fb4"/></linearGradient><linearGradient id="q" x1="82" x2="82" y1="47" y2="65" gradientTransform="rotate(-45 81.436 168.944)scale(1.5 1.55556)" gradientUnits="userSpaceOnUse"><stop offset="0" stop-color="#2ec27e"/><stop offset=".5" stop-color="#33d17a"/><stop offset="1" stop-color="#26a269"/></linearGradient><linearGradient id="r" x1="88" x2="88" y1="47" y2="65" gradientTransform="rotate(-45 63.436 125.488)scale(1.5 1.55556)" gradientUnits="userSpaceOnUse"><stop offset="0" stop-color="#c01c28"/><stop offset=".5" stop-color="#e01b24"/><stop offset="1" stop-color="#a51d2d"/></linearGradient><linearGradient id="s" x1="82" x2="82" y1="47" y2="65" gradientTransform="rotate(-45 72.436 147.216)scale(1.5 1.55556)" gradientUnits="userSpaceOnUse"><stop offset="0" stop-color="#f5c211"/><stop offset=".5" stop-color="#f6d32d"/><stop offset="1" stop-color="#e5a50a"/></linearGradient><path fill="#deddda" d="M16 30h96a8 8 0 0 1 8 8v72a8 8 0 0 1-8 8H16a8 8 0 0 1-8-8V38a8 8 0 0 1 8-8m0 0"/><path fill="#fafafa" d="M16 28h96a8 8 0 0 1 8 8v72a8 8 0 0 1-8 8H16a8 8 0 0 1-8-8V36a8 8 0 0 1 8-8m0 0"/><g clip-path="url(#c)"><g clip-path="url(#d)"><path fill="#ebebeb" d="M8 28h112v16H8zm0 0"/></g></g><path fill="#d8d8d8" d="M117 36a5 5 0 1 1-10 0 5 5 0 0 1 10 0m0 0"/><path fill="#2f2f2f" d="M110 34h.516a.5.5 0 0 1 .343.156l1.141 1.14 1.156-1.14c.133-.113.223-.152.344-.156h.5v.5c0 .145-.016.273-.125.375l-1.14 1.14 1.124 1.126a.5.5 0 0 1 .141.359v.5h-.5a.5.5 0 0 1-.36-.14L112 36.718l-1.14 1.14a.5.5 0 0 1-.36.141h-.5v-.5c0-.133.047-.266.14-.36l1.141-1.124-1.14-1.141A.45.45 0 0 1 110 34.5zm0 0"/><g clip-path="url(#e)"><g clip-path="url(#f)"><g clip-path="url(#g)" mask="url(#h)" transform="translate(-8 -16)"><path fill="#3584e4" d="m-26.012 48.898 12.727-12.726 67.883 67.883L41.87 116.78zm0 0"/><path fill="#33d17a" d="M-13.285 36.172-.56 23.445l67.883 67.88-12.726 12.73zm0 0"/><path fill="#f6d32d" d="m-.559 23.445 12.73-12.73 67.884 67.883-12.73 12.726zm0 0"/><path fill="#e01b24" d="M12.172 10.715 24.898-2.012l67.883 67.883-12.726 12.727zm0 0"/></g></g></g><path fill="url(#i)" d="M79.125 51.285a2.99 2.99 0 0 0 0 4.242 2.99 2.99 0 0 0 4.242 0l6.363-6.363v-7.246a3 3 0 0 0-2.12.879zm0 0"/><path fill="url(#j)" d="M89.73 41.918v7.246l10.606 10.606h7.246c0-.766-.293-1.536-.879-2.122L91.852 42.797a3 3 0 0 0-2.122-.879m0 0"/><path fill="url(#k)" d="M72.055 88.055a2.98 2.98 0 0 0-.883 2.12h7.246l28.285-28.284a3 3 0 0 0 .879-2.121h-7.246zm0 0"/><path fill="url(#m)" d="M71.172 90.176c0 .765.293 1.531.883 2.12l9.898 9.9a2.99 2.99 0 0 0 4.242 0 2.99 2.99 0 0 0 0-4.243l-7.777-7.777zm0 0"/><path fill="url(#n)" d="M83.367 99.367a6 6 0 0 1 8.485 0l18.386 18.383a6.003 6.003 0 0 1-8.488 8.488l-18.383-18.386a6 6 0 0 1 0-8.485m0 0"/><path fill="#865e3c" d="m96.8 117.043 4.243-4.242c.39-.39 1.027-.39 1.418 0 .387.39.387 1.023 0 1.414l-4.246 4.246a1.007 1.007 0 0 1-1.414 0 1.004 1.004 0 0 1 0-1.418m2.828 2.832 4.246-4.246a1 1 0 1 1 1.414 1.414l-4.246 4.246a1 1 0 1 1-1.414-1.414m2.831 2.828 4.243-4.242a1 1 0 1 1 1.414 1.414l-4.242 4.242a1 1 0 1 1-1.414-1.414m0 0"/><path fill="url(#p)" d="M28.21 86.64a5.99 5.99 0 0 0 0 8.485l11.317 11.313a5.984 5.984 0 0 0 8.485 0l8.484-8.485-19.797-19.8zm0 0"/><path fill="url(#q)" d="m36.7 78.152 12.726-12.726 19.8 19.8-12.73 12.727zm0 0"/><path fill="url(#r)" d="m81.953 72.496 8.484-8.484a5.984 5.984 0 0 0 0-8.485L79.126 44.211a5.99 5.99 0 0 0-8.484 0l-8.489 8.488zm0 0"/><path fill="url(#s)" d="m49.426 65.426 12.726-12.727 19.801 19.797-12.726 12.73zm0 0"/></svg>