<svg xmlns="http://www.w3.org/2000/svg" width="128" height="128"><linearGradient id="b" x1="88.597" x2="536.598" y1="-449.394" y2="-449.394" gradientTransform="matrix(.19643 0 0 .3421 2.597 273.74)" gradientUnits="userSpaceOnUse"><stop offset="0" stop-color="#77767b"/><stop offset=".045" stop-color="#c0bfbc"/><stop offset=".091" stop-color="#9a9996"/><stop offset=".909" stop-color="#9a9996"/><stop offset=".955" stop-color="#c0bfbc"/><stop offset="1" stop-color="#77767b"/></linearGradient><linearGradient id="c" x1="32" x2="64" y1="104" y2="104" gradientUnits="userSpaceOnUse"><stop offset="0" stop-color="#865e3c"/><stop offset=".063" stop-color="#b5835a"/><stop offset=".125" stop-color="#986a44"/><stop offset=".875" stop-color="#986a44"/><stop offset=".938" stop-color="#b5835a"/><stop offset="1" stop-color="#865e3c"/></linearGradient><filter id="a" width="100%" height="100%" x="0%" y="0%"><feColorMatrix in="SourceGraphic" values="0 0 0 0 1 0 0 0 0 1 0 0 0 0 1 0 0 0 1 0"/></filter><mask id="e"><g filter="url(#a)"><path fill-opacity=".2" d="M0 0h128v128H0z"/></g></mask><clipPath id="d"><path d="M0 0h192v152H0z"/></clipPath><linearGradient id="f" x1="68" x2="96" y1="108" y2="108" gradientUnits="userSpaceOnUse"><stop offset="0" stop-color="#865e3c"/><stop offset=".071" stop-color="#b5835a"/><stop offset=".143" stop-color="#986a44"/><stop offset=".857" stop-color="#986a44"/><stop offset=".929" stop-color="#b5835a"/><stop offset="1" stop-color="#865e3c"/></linearGradient><mask id="h"><g filter="url(#a)"><path fill-opacity=".2" d="M0 0h128v128H0z"/></g></mask><clipPath id="g"><path d="M0 0h192v152H0z"/></clipPath><clipPath id="i"><path d="M28 52h72v2H28zm0 0"/></clipPath><clipPath id="k"><path d="M32 52h64c2.21 0 4 1.79 4 4v16c0 2.21-1.79 4-4 4H32c-2.21 0-4-1.79-4-4V56c0-2.21 1.79-4 4-4m0 0"/></clipPath><clipPath id="l"><path d="M28 58h72v2H28zm0 0"/></clipPath><clipPath id="m"><path d="M32 52h64c2.21 0 4 1.79 4 4v16c0 2.21-1.79 4-4 4H32c-2.21 0-4-1.79-4-4V56c0-2.21 1.79-4 4-4m0 0"/></clipPath><clipPath id="n"><path d="M28 64h72v2H28zm0 0"/></clipPath><clipPath id="o"><path d="M32 52h64c2.21 0 4 1.79 4 4v16c0 2.21-1.79 4-4 4H32c-2.21 0-4-1.79-4-4V56c0-2.21 1.79-4 4-4m0 0"/></clipPath><clipPath id="p"><path d="M28 70h72v2H28zm0 0"/></clipPath><clipPath id="q"><path d="M32 52h64c2.21 0 4 1.79 4 4v16c0 2.21-1.79 4-4 4H32c-2.21 0-4-1.79-4-4V56c0-2.21 1.79-4 4-4m0 0"/></clipPath><clipPath id="r"><path d="M48 78h4v2h-4zm0 2h32v6H48zm0 0"/></clipPath><clipPath id="s"><path d="M48 76h4v2h-4zm0 2h32v6H48zm0 0"/></clipPath><linearGradient id="t" x1="48" x2="88" y1="84" y2="84" gradientUnits="userSpaceOnUse"><stop offset="0" stop-color="#deddda"/><stop offset=".025" stop-color="#eeeeec"/><stop offset=".05" stop-color="#deddda"/><stop offset=".95" stop-color="#deddda"/><stop offset=".975" stop-color="#eeeeec"/><stop offset="1" stop-color="#c0bfbc"/></linearGradient><linearGradient id="u" x1="64" x2="64" y1="76" y2="80" gradientUnits="userSpaceOnUse"><stop offset="0" stop-color="#9a9996"/><stop offset="1" stop-color="#c0bfbc"/></linearGradient><path fill="url(#b)" d="M28 16h72a8 8 0 0 1 8 8v88a8 8 0 0 1-8 8H28a8 8 0 0 1-8-8V24a8 8 0 0 1 8-8m0 0"/><path fill="#deddda" d="M28 8h72a8 8 0 0 1 8 8v20a8 8 0 0 1-8 8H28a8 8 0 0 1-8-8V16a8 8 0 0 1 8-8m0 0"/><path fill="#3d3846" d="M32 64h64c2.21 0 4 1.79 4 4v40c0 2.21-1.79 4-4 4H32c-2.21 0-4-1.79-4-4V68c0-2.21 1.79-4 4-4m0 0"/><path fill="url(#c)" d="M36 80h24c2.21 0 4 1.79 4 4v16c0 2.21-1.79 4-4 4H36c-2.21 0-4-1.79-4-4V84c0-2.21 1.79-4 4-4m0 0"/><path fill="#b5835a" d="M36 80h24c2.21 0 4 1.79 4 4v8c0 2.21-1.79 4-4 4H36c-2.21 0-4-1.79-4-4v-8c0-2.21 1.79-4 4-4m0 0"/><g clip-path="url(#d)" mask="url(#e)" transform="translate(-8 -16)"><path fill="#fff" d="M40 102h32v4H40zm0 0"/></g><path fill="url(#f)" d="M72 80h20c2.21 0 4 1.79 4 4v20c0 2.21-1.79 4-4 4H72c-2.21 0-4-1.79-4-4V84c0-2.21 1.79-4 4-4m0 0"/><path fill="#b5835a" d="M72 80h20c2.21 0 4 1.79 4 4v8c0 2.21-1.79 4-4 4H72c-2.21 0-4-1.79-4-4v-8c0-2.21 1.79-4 4-4m0 0"/><g clip-path="url(#g)" mask="url(#h)" transform="translate(-8 -16)"><path fill="#fff" d="M92 96v28h-4V96zm0 0"/></g><path fill="#62a0ea" d="M32 52h64c2.21 0 4 1.79 4 4v16c0 2.21-1.79 4-4 4H32c-2.21 0-4-1.79-4-4V56c0-2.21 1.79-4 4-4m0 0"/><g clip-path="url(#i)"><g clip-path="url(#k)"><path fill="#3584e4" d="M28 52h72v2H28zm0 0"/></g></g><g clip-path="url(#l)"><g clip-path="url(#m)"><path fill="#3584e4" d="M28 58h72v2H28zm0 0"/></g></g><g clip-path="url(#n)"><g clip-path="url(#o)"><path fill="#3584e4" d="M28 64h72v2H28zm0 0"/></g></g><g clip-path="url(#p)"><g clip-path="url(#q)"><path fill="#3584e4" d="M28 70h72v2H28zm0 0"/></g></g><path fill-opacity=".2" d="M28 76h72v8H28zm0 0"/><path fill="#deddda" d="M28 74h72v8H28zm0 0"/><path fill="#c0bfbc" d="M28 72h72v2H28zm0 0"/><g clip-path="url(#r)"><path fill-opacity=".2" d="M50 78h28c1.11 0 2 .89 2 2v4c0 1.11-.89 2-2 2H50c-1.11 0-2-.89-2-2v-4c0-1.11.89-2 2-2m0 0"/></g><g clip-path="url(#s)"><path fill="url(#t)" d="M50 76h28c1.11 0 2 .89 2 2v4c0 1.11-.89 2-2 2H50c-1.11 0-2-.89-2-2v-4c0-1.11.89-2 2-2m0 0"/></g><path fill="url(#u)" d="M48 76v2c0 1.11.89 2 2 2h28c1.11 0 2-.89 2-2v-2h-4v2H52v-2zm0 0"/></svg>