<svg xmlns="http://www.w3.org/2000/svg" xmlns:xlink="http://www.w3.org/1999/xlink" width="128" height="128"><defs><linearGradient xlink:href="#a" id="e" x1="88.596" x2="536.596" y1="-449.394" y2="-449.394" gradientTransform="matrix(.19834 0 0 .34543 2.001 446.737)" gradientUnits="userSpaceOnUse"/><linearGradient id="a"><stop offset="0" style="stop-color:#77767b;stop-opacity:1"/><stop offset=".05" style="stop-color:#c0bfbc;stop-opacity:1"/><stop offset=".1" style="stop-color:#9a9996;stop-opacity:1"/><stop offset=".9" style="stop-color:#9a9996;stop-opacity:1"/><stop offset=".95" style="stop-color:#c0bfbc;stop-opacity:1"/><stop offset="1" style="stop-color:#77767b;stop-opacity:1"/></linearGradient><linearGradient xlink:href="#b" id="f" x1="-291.929" x2="-259.794" y1="277.277" y2="277.277" gradientTransform="translate(326.886 -20.29)scale(1.0097)" gradientUnits="userSpaceOnUse"/><linearGradient id="b"><stop offset="0" style="stop-color:#77767b;stop-opacity:1"/><stop offset=".038" style="stop-color:#c0bfbc;stop-opacity:1"/><stop offset=".077" style="stop-color:#9a9996;stop-opacity:1"/><stop offset=".923" style="stop-color:#9a9996;stop-opacity:1"/><stop offset=".962" style="stop-color:#c0bfbc;stop-opacity:1"/><stop offset="1" style="stop-color:#77767b;stop-opacity:1"/></linearGradient><linearGradient xlink:href="#c" id="g" x1="-328.495" x2="-324.828" y1="283.379" y2="284.595" gradientTransform="translate(360.725 -14.74)scale(1.0097)" gradientUnits="userSpaceOnUse"/><linearGradient id="c"><stop offset="0" style="stop-color:#9a9996;stop-opacity:1"/><stop offset="1" style="stop-color:#9a9996;stop-opacity:0"/></linearGradient><linearGradient xlink:href="#c" id="h" x1="-261.777" x2="-265.51" y1="277.83" y2="279.068" gradientTransform="translate(360.725 -14.74)scale(1.0097)" gradientUnits="userSpaceOnUse"/><linearGradient xlink:href="#b" id="i" x1="-291.929" x2="-259.794" y1="277.277" y2="277.277" gradientTransform="rotate(180 -97.881 271.972)scale(1.0097)" gradientUnits="userSpaceOnUse"/><linearGradient xlink:href="#d" id="j" x1="-334.841" x2="-334.841" y1="232.452" y2="251.052" gradientTransform="matrix(.94786 0 0 1.0097 343.049 -3.796)" gradientUnits="userSpaceOnUse"/><linearGradient id="d"><stop offset="0" style="stop-color:#000;stop-opacity:1"/><stop offset="1" style="stop-color:#000;stop-opacity:0"/></linearGradient><linearGradient xlink:href="#d" id="k" x1="-334.841" x2="-334.841" y1="232.452" y2="251.052" gradientTransform="matrix(.94786 0 0 4.92976 343.049 -959.367)" gradientUnits="userSpaceOnUse"/><linearGradient xlink:href="#c" id="l" x1="-241.872" x2="-280.162" y1="275.937" y2="190.161" gradientTransform="translate(360.725 -20.74)scale(1.0097)" gradientUnits="userSpaceOnUse"/></defs><g style="display:inline" transform="translate(.08 -171.92)"><rect width="88.854" height="105.01" x="19.573" y="186.495" rx="8.078" ry="8.078" style="display:inline;vector-effect:none;fill:url(#e);fill-opacity:1;stroke:none;stroke-width:.252426;stroke-linecap:butt;stroke-linejoin:miter;stroke-miterlimit:4;stroke-dasharray:none;stroke-dashoffset:0;stroke-opacity:1;marker:none;marker-start:none;marker-mid:none;marker-end:none;paint-order:normal"/><rect width="88.854" height="34.341" x="19.573" y="180.495" ry="7.988" style="display:inline;fill:#deddda;fill-opacity:1;stroke:#caf;stroke-width:0;stroke-linecap:round;stroke-linejoin:round;stroke-opacity:0;paint-order:markers stroke fill"/><rect width="76.67" height="57.926" x="25.665" y="230.409" ry="4.261" style="display:inline;fill:#c5c5c5;fill-opacity:1;stroke:#caf;stroke-width:0;stroke-linecap:round;stroke-linejoin:round;stroke-opacity:0;paint-order:markers stroke fill"/><path fill="#ca763f" d="M36.208 245.645h24.277a4.085 4.085 0 0 1 4.085 4.085v19.896a4.085 4.085 0 0 1-4.085 4.085H36.208a4.085 4.085 0 0 1-4.085-4.085V249.73a4.085 4.085 0 0 1 4.085-4.085m0 0" style="display:inline;fill:#986a44;fill-opacity:1;stroke-width:1.24198"/><path fill="#ca763f" d="M36.208 245.645h24.277a4.085 4.085 0 0 1 4.085 4.085v19.896a4.085 4.085 0 0 1-4.085 4.085H36.208a4.085 4.085 0 0 1-4.085-4.085V249.73a4.085 4.085 0 0 1 4.085-4.085m0 0" style="display:inline;opacity:.450577;mix-blend-mode:luminosity;fill:url(#f);fill-opacity:1;stroke-width:1.24198"/><path d="M42.959 243.505H25.665v40.986a4.24 4.24 0 0 0 2.445 3.844z" style="display:inline;fill:url(#g);fill-opacity:1;stroke:#caf;stroke-width:0;stroke-linecap:round;stroke-linejoin:round;stroke-opacity:0;paint-order:markers stroke fill"/><path d="M85.041 243.505h17.294v41.002a4.24 4.24 0 0 1-2.445 3.843z" style="display:inline;fill:url(#h);fill-opacity:1;stroke:#caf;stroke-width:0;stroke-linecap:round;stroke-linejoin:round;stroke-opacity:0;paint-order:markers stroke fill"/><path fill="#ca763f" d="M94.87 277.649H70.595a4.085 4.085 0 0 1-4.085-4.085v-19.896a4.085 4.085 0 0 1 4.085-4.085H94.87a4.085 4.085 0 0 1 4.085 4.085v19.896a4.085 4.085 0 0 1-4.085 4.085m0 0" style="display:inline;fill:#986a44;fill-opacity:1;stroke-width:1.24198"/><path fill="#ca763f" d="m94.927 277.624-24.277.049a4.085 4.085 0 0 1-4.093-4.077l-.04-19.896a4.085 4.085 0 0 1 4.077-4.093l24.277-.048a4.085 4.085 0 0 1 4.093 4.076l.04 19.896a4.085 4.085 0 0 1-4.077 4.093m0 0" style="display:inline;opacity:.450577;mix-blend-mode:luminosity;fill:url(#i);fill-opacity:1;stroke-width:1.24198"/><path fill="#d38d5f" d="m94.918 283.052-24.265.05a4.087 4.087 0 0 1-4.093-4.078l-.039-13.4a4.085 4.085 0 0 1 4.077-4.094l24.264-.048a4.087 4.087 0 0 1 4.094 4.076l.038 13.401a4.085 4.085 0 0 1-4.076 4.093" style="display:inline;fill:#b5835a;fill-opacity:1;stroke-width:1.24198"/><path fill="#d99d76" d="m79.537 283.084-.045-21.57 6.486-.015.046 21.57z" style="display:inline;fill:#c09673;fill-opacity:1;stroke-width:1.14502"/><path fill="#d38d5f" d="M36.15 240.23h24.335a4.085 4.085 0 0 1 4.085 4.084v19.46a4.085 4.085 0 0 1-4.085 4.085H36.15a4.085 4.085 0 0 1-4.085-4.085v-19.46a4.085 4.085 0 0 1 4.085-4.084m0 0" style="display:inline;fill:#bf9572;fill-opacity:1;stroke-width:1.24198"/><rect width="76.67" height="24.4" x="25.665" y="219.164" ry="4.261" style="display:inline;fill:#62a0ea;fill-opacity:1;stroke:#caf;stroke-width:0;stroke-linecap:round;stroke-linejoin:round;stroke-opacity:0;paint-order:markers stroke fill"/><path fill="#d99d76" d="M32.065 251.233H64.57v6.486H32.065Zm0 0" style="display:inline;fill:#caa589;fill-opacity:1;stroke-width:1.24198"/><rect width="76.67" height="7.107" x="25.665" y="242.587" ry="0" style="display:inline;fill:url(#j);fill-opacity:1;stroke:#caf;stroke-width:0;stroke-linecap:round;stroke-linejoin:round;stroke-opacity:0;paint-order:markers stroke fill"/><rect width="76.67" height="4.43" x="25.665" y="239.133" ry="0" style="display:inline;fill:#c0bfbc;fill-opacity:1;stroke:#caf;stroke-width:0;stroke-linecap:round;stroke-linejoin:round;stroke-opacity:0;paint-order:markers stroke fill"/><path fill="#d99d76" d="m79.537 261.482-.045-11.914 6.486-.004.046 11.914z" style="display:inline;fill:#ba8960;fill-opacity:1;stroke-width:.596597"/><path d="M29.925 219.163a4.23 4.23 0 0 0-2.61.911h73.37a4.23 4.23 0 0 0-2.611-.91zm-4.26 4.335v.91h76.67v-.91zm0 4.334v.91h76.67v-.91zm0 4.333v.91h76.67v-.91z" style="display:inline;fill:#418be6;fill-opacity:1;stroke-width:.575622"/><path d="M25.665 243.563v30.877c0 1.69.983 3.13 2.402 3.82h71.867a4.24 4.24 0 0 0 2.402-3.82v-30.877z" style="display:inline;opacity:.4762;fill:url(#k);fill-opacity:1;stroke:#caf;stroke-width:0;stroke-linecap:round;stroke-linejoin:round;stroke-opacity:0;paint-order:markers stroke fill"/><path d="M29.925 223.496a4.23 4.23 0 0 0-2.61.91h73.37a4.23 4.23 0 0 0-2.611-.91zm-4.26 4.334v.912h76.67v-.912zm0 4.335v.91h76.67v-.91zm0 4.333v.909h76.67v-.91z" style="display:inline;fill:#418be6;fill-opacity:1;stroke-width:.575622"/><rect width="88.854" height="34.341" x="19.573" y="180.495" ry="7.988" style="display:inline;fill:url(#l);fill-opacity:1;stroke:#caf;stroke-width:0;stroke-linecap:round;stroke-linejoin:round;stroke-opacity:0;paint-order:markers stroke fill"/></g></svg>