<svg xmlns="http://www.w3.org/2000/svg" xmlns:xlink="http://www.w3.org/1999/xlink" width="128" height="128" viewBox="0 0 33.867 33.867"><defs><linearGradient xlink:href="#a" id="f" x1="88.596" x2="536.596" y1="-449.394" y2="-449.394" gradientTransform="matrix(.06585 0 0 .06798 80.231 209.91)" gradientUnits="userSpaceOnUse"/><linearGradient id="a"><stop offset="0" style="stop-color:#77767b;stop-opacity:1"/><stop offset=".038" style="stop-color:#c0bfbc;stop-opacity:1"/><stop offset=".077" style="stop-color:#9a9996;stop-opacity:1"/><stop offset=".923" style="stop-color:#9a9996;stop-opacity:1"/><stop offset=".962" style="stop-color:#c0bfbc;stop-opacity:1"/><stop offset="1" style="stop-color:#77767b;stop-opacity:1"/></linearGradient><linearGradient xlink:href="#b" id="g" x1="235.9" x2="235.9" y1="-47.914" y2="-20.8" gradientTransform="matrix(.16366 -.1854 .76488 .63654 81.495 226.49)" gradientUnits="userSpaceOnUse"/><linearGradient id="b"><stop offset="0" style="stop-color:#f6d32d;stop-opacity:1"/><stop offset="1" style="stop-color:#f6d32d;stop-opacity:1"/></linearGradient><linearGradient xlink:href="#c" id="h" x1="236.163" x2="239.662" y1="-15.941" y2="-15.941" gradientTransform="translate(-79.786 223.975)scale(.93428)" gradientUnits="userSpaceOnUse"/><linearGradient id="c"><stop offset="0" style="stop-color:#d5d3cf;stop-opacity:1"/><stop offset=".142" style="stop-color:#e3e2df;stop-opacity:1"/><stop offset=".462" style="stop-color:#c0bfbc;stop-opacity:1"/><stop offset=".482" style="stop-color:#c0bfbc;stop-opacity:1"/><stop offset=".838" style="stop-color:#e3e2df;stop-opacity:1"/><stop offset="1" style="stop-color:#d5d3cf;stop-opacity:1"/></linearGradient><linearGradient xlink:href="#c" id="i" x1="236.163" x2="239.662" y1="-15.941" y2="-15.941" gradientTransform="rotate(49.053 141.898 37.232)scale(.93428)" gradientUnits="userSpaceOnUse"/><linearGradient xlink:href="#c" id="j" x1="236.163" x2="239.662" y1="-15.941" y2="-15.941" gradientTransform="rotate(49.053 180.492 75.852)scale(.93428)" gradientUnits="userSpaceOnUse"/><linearGradient xlink:href="#c" id="k" x1="236.163" x2="239.662" y1="-15.941" y2="-15.941" gradientTransform="rotate(-40.947 382.97 42.84)scale(.93428)" gradientUnits="userSpaceOnUse"/><linearGradient xlink:href="#b" id="l" x1="235.9" x2="235.9" y1="-47.914" y2="-20.8" gradientTransform="translate(-120.071 194.814)scale(.2472)" gradientUnits="userSpaceOnUse"/><linearGradient xlink:href="#d" id="m" x1="279.485" x2="279.485" y1="-20.8" y2="-47.914" gradientTransform="translate(-120.071 194.814)scale(.2472)" gradientUnits="userSpaceOnUse"/><linearGradient id="d"><stop offset="0" style="stop-color:#000;stop-opacity:.62517571"/><stop offset=".133" style="stop-color:#000;stop-opacity:.47843137"/><stop offset=".291" style="stop-color:#000;stop-opacity:.28235294"/><stop offset=".542" style="stop-color:#000;stop-opacity:.11764706"/><stop offset=".864" style="stop-color:#000;stop-opacity:0"/><stop offset="1" style="stop-color:#000;stop-opacity:.03069582"/></linearGradient><linearGradient xlink:href="#e" id="n" x1="93.438" x2="107.553" y1="250.588" y2="250.588" gradientTransform="translate(-87.915 133.04)scale(.26458)" gradientUnits="userSpaceOnUse"/><linearGradient id="e"><stop offset="0" style="stop-color:#a37348;stop-opacity:1"/><stop offset=".086" style="stop-color:#b07c50;stop-opacity:1"/><stop offset=".467" style="stop-color:#bf9673;stop-opacity:1"/><stop offset=".904" style="stop-color:#b1825a;stop-opacity:1"/><stop offset="1" style="stop-color:#af6c47;stop-opacity:1"/></linearGradient></defs><g transform="translate(-83.949 -148.694)"><rect width="29.502" height="19.854" x="86.065" y="159.505" rx="2.705" ry="2.705" style="display:inline;fill:#fff;fill-opacity:1;stroke:#deddda;stroke-width:0;stroke-linecap:round;stroke-linejoin:round;stroke-dasharray:none;stroke-dashoffset:34.5;paint-order:markers stroke fill"/><rect width="29.502" height="20.667" x="86.065" y="158.693" rx="2.702" ry="2.702" style="display:inline;opacity:.487989;fill:url(#f);fill-opacity:1;stroke:none;stroke-width:.0605327;stroke-linecap:butt;stroke-linejoin:miter;stroke-miterlimit:4;stroke-dasharray:none;stroke-dashoffset:0;stroke-opacity:1;marker:none;marker-start:none;marker-mid:none;marker-end:none;paint-order:normal"/><rect width="29.499" height="22.344" x="86.067" y="156.049" rx="2.705" ry="2.705" style="display:inline;fill:#f6f5f4;fill-opacity:1;stroke:#c0bfbc;stroke-width:.165276;stroke-linecap:round;stroke-linejoin:round;stroke-dasharray:none;stroke-dashoffset:34.5;stroke-opacity:1;paint-order:markers stroke fill"/><path d="M86.065 161.434v7.009l8.66 7.206c.106.09.212.17.318.252h3.509l2.074-2.35z" style="display:inline;opacity:.704367;fill:#62a0ea;stroke:#000;stroke-width:0;stroke-linecap:round;stroke-linejoin:round;stroke-dashoffset:34.5;paint-order:markers stroke fill"/><path d="M88.113 156.13a2.696 2.696 0 0 0-2.048 2.621v2.683l14.56 12.118 3.567-4.041z" style="display:inline;opacity:.704367;fill:#57e389;fill-opacity:1;stroke:#000;stroke-width:0;stroke-linecap:round;stroke-linejoin:round;stroke-dashoffset:34.5;paint-order:markers stroke fill"/><path d="M88.77 156.047q-.34.002-.657.083l16.079 13.381 3.567-4.04-11.323-9.424z" style="display:inline;opacity:.704367;fill:url(#g);fill-opacity:1;stroke:#000;stroke-width:0;stroke-linecap:round;stroke-linejoin:round;stroke-dashoffset:34.5;paint-order:markers stroke fill"/><path d="m96.435 156.047 11.324 9.423 3.067-3.474c.276-.314-.542-1.433-1.836-2.51l-4.133-3.439z" style="display:inline;opacity:.704367;fill:#ed333b;stroke:#000;stroke-width:0;stroke-linecap:round;stroke-linejoin:round;stroke-dashoffset:34.5;paint-order:markers stroke fill"/><path d="M88.734 156.047a2.66 2.66 0 0 0-2.669 2.668v1.54h29.5v-1.54a2.66 2.66 0 0 0-2.667-2.668z" style="display:inline;opacity:.0482074;fill:#000;fill-opacity:1;stroke:#000;stroke-width:0;stroke-linecap:round;stroke-linejoin:round;stroke-dasharray:none;stroke-dashoffset:34.5;paint-order:markers stroke fill"/><circle cx="113.142" cy="158.269" r="1.372" style="display:inline;opacity:.188923;fill:#7c7c7c;fill-opacity:1;stroke:#deddda;stroke-width:0;stroke-linecap:round;stroke-linejoin:round;stroke-dasharray:none;stroke-dashoffset:34.5;paint-order:markers stroke fill"/><path fill="#222" d="M112.5 157.626h.109a.1.1 0 0 1 .074.033l.459.46.462-.46c.029-.025.048-.033.074-.033h.107v.107c0 .03-.004.059-.027.08l-.459.46.456.455q.03.032.03.077v.107h-.107a.1.1 0 0 1-.077-.03l-.46-.459-.458.459a.1.1 0 0 1-.077.03h-.107v-.107q0-.045.03-.077l.459-.456-.459-.459a.1.1 0 0 1-.03-.08zm0 0" style="display:inline;opacity:.600755;fill:#000;fill-opacity:1;stroke-width:.1072"/><g style="display:inline" transform="rotate(-8.705 1028.266 -215.6)scale(.26458)"><rect width="3.269" height="19.1" x="140.856" y="199.86" rx="1.75" ry="1.75" style="fill:url(#h);fill-opacity:1;stroke:#000;stroke-width:0;stroke-linecap:round;stroke-linejoin:round;stroke-dashoffset:34.5;paint-order:markers stroke fill" transform="rotate(-40.947)"/><path d="M174.815 112.925a1.63 1.63 0 0 0-.163 2.306 1.63 1.63 0 0 0 2.305.162l62.585-54.302.255-3.913a1.63 1.63 0 0 0-1.19.398z" style="fill:url(#i);fill-opacity:1;stroke:#000;stroke-width:0;stroke-linecap:round;stroke-linejoin:round;stroke-dashoffset:34.5;paint-order:markers stroke fill"/><path d="M217.286 97.084a1.63 1.63 0 0 0-.164 2.306 1.63 1.63 0 0 0 2.307.164l31.72-27.522c.348-.302.535-.718.559-1.143l-3.91-.255 1.359-1.18c-.051.036-.104.067-.152.108z" style="fill:url(#j);fill-opacity:1;stroke:#000;stroke-width:0;stroke-linecap:round;stroke-linejoin:round;stroke-dashoffset:34.5;paint-order:markers stroke fill"/><path d="M217.286 97.084a2 2 0 0 0-.17.174l.366-.318a2 2 0 0 0-.196.144m-.562 1.13a1.63 1.63 0 0 0 .398 1.176l10.805 12.453a1.63 1.63 0 0 0 2.306.163 1.63 1.63 0 0 0 .164-2.306l-9.747-11.233z" style="fill:url(#k);fill-opacity:1;stroke:#000;stroke-width:0;stroke-linecap:round;stroke-linejoin:round;stroke-dashoffset:34.5;paint-order:markers stroke fill"/></g><path d="M109.478 158.489a.43.43 0 0 0-.218.083l-.018.013a.4.4 0 0 0-.06.056l-14.466 17.03a.43.43 0 0 0 .05.61.43.43 0 0 0 .609-.05l14.187-16.7 2.541 2.158-6.914 8.138a.4.4 0 0 0-.038.053l.008-.01a.43.43 0 0 0-.058.347l.002.01a.4.4 0 0 0 .136.21l3.325 2.825a.432.432 0 1 0 .56-.66l-2.996-2.544 6.914-8.138a.43.43 0 0 0 .1-.321h-.012a.48.48 0 0 0-.168-.315l-3.146-2.673a.48.48 0 0 0-.337-.115z" style="display:inline;fill:#000;fill-opacity:.215406;stroke:#000;stroke-width:0;stroke-linecap:round;stroke-linejoin:round;stroke-dashoffset:34.5;paint-order:markers stroke fill"/><path d="m92.974 173.164 2.999-3.53v0l5.108 4.34v0l-3 3.53a.753.753 0 0 1-1.063.086l-3.958-3.362a.753.753 0 0 1-.086-1.064" style="display:inline;fill:#62a0ea;stroke:#000;stroke-width:0;stroke-linecap:round;stroke-linejoin:round;stroke-dashoffset:34.5;paint-order:markers stroke fill"/><rect width="5.387" height="6.702" x="-67.145" y="182.97" rx="0" ry="0" style="display:inline;fill:#57e389;fill-opacity:1;stroke:#000;stroke-width:0;stroke-linecap:round;stroke-linejoin:round;stroke-dashoffset:34.5;paint-order:markers stroke fill" transform="rotate(-49.651)"/><path d="m102.948 161.423 3-3.53a.753.753 0 0 1 1.063-.087l3.958 3.362c.319.27.357.745.087 1.064l-3 3.53v0l-4.533-3.85c-.318-.271-.845-.17-.575-.49" style="display:inline;fill:#ed333b;stroke:#000;stroke-width:0;stroke-linecap:round;stroke-linejoin:round;stroke-dashoffset:34.5;paint-order:markers stroke fill"/><rect width="5.387" height="6.702" x="-61.758" y="182.97" rx="0" ry="0" style="display:inline;fill:url(#l);fill-opacity:1;stroke:#000;stroke-width:0;stroke-linecap:round;stroke-linejoin:round;stroke-dashoffset:34.5;paint-order:markers stroke fill" transform="rotate(-49.651)"/><rect width="21.548" height="6.702" x="-72.532" y="182.97" rx=".808" ry=".808" style="display:inline;opacity:.559734;fill:url(#m);fill-opacity:1;stroke:#000;stroke-width:0;stroke-linecap:round;stroke-linejoin:round;stroke-dashoffset:34.5;paint-order:markers stroke fill" transform="rotate(-49.651)"/><rect width="3.735" height="11.716" x="-63.193" y="193.484" rx="1.435" ry="1.435" style="display:inline;fill:url(#n);fill-opacity:1;stroke:#000;stroke-width:0;stroke-linecap:round;stroke-linejoin:round;stroke-dashoffset:34.5;paint-order:markers stroke fill" transform="rotate(-49.651)"/></g></svg>