<svg xmlns="http://www.w3.org/2000/svg" width="500" height="500"><path d="m444.25 58.363 14.536 17.231c9.582 10.274 12.468 13.495 13.339 27.193l3.144 327.799c-1.952 28.976-15.991 39.847-45.698 41.672 3.073 1.536-324.559 2.29-326.002 1.569-16.02-1.721-14.86-1.62-26.915-11.284L55.75 442.509" style="stroke:#000;stroke-width:0;fill:#ffdb28"/><rect width="400" height="400" x="50" y="50" rx="23.519" ry="23.519" style="stroke:#000;fill:#ffee92;stroke-width:0"/><path d="m333.101 351.394 115.157-3.484c.794 22.336 1.742 78.574 1.742 78.571C450 439.47 439.47 450 426.481 450c0 0-105.574-.948-122.996-.871l6.097-74.216c0-12.989 10.53-23.519 23.519-23.519Z" style="stroke:#000;stroke-width:0;fill:#ffe66a"/><path d="M338.067 345.543h109.567c20.371 0-146.453 123.106-146.453 102.736v-65.85c0-20.372 16.514-36.886 36.886-36.886Z" style="stroke:#000;stroke-width:0;fill:#ccbe71;fill-rule:nonzero"/></svg>