<svg xmlns="http://www.w3.org/2000/svg" xmlns:xlink="http://www.w3.org/1999/xlink" xml:space="preserve" width="64" height="64" stroke-miterlimit="10" style="fill-rule:nonzero;clip-rule:evenodd;stroke-linecap:round;stroke-linejoin:round" viewBox="0 0 1024 1024"><defs><radialGradient id="a" cx="512" cy="563.989" r="442.847" gradientUnits="userSpaceOnUse"><stop offset="0" stop-color="#4d926e"/><stop offset=".49" stop-color="#4eb580"/><stop offset="1" stop-color="#4e8e69"/></radialGradient><path id="b" fill-rule="evenodd" d="M560.344 144.438c-1.09 3.544-1.738 8.249-1.938 14.406-.09 2.796-.121 5.144-.094 9.968.03 5.172.028 7.163-.093 9.469-.543 10.305-1.139 18.567-2.531 36.688-.309 4.02-.402 5.59-.563 7.719-1.938 25.555-2.781 41.243-2.781 58.031a4.92 4.92 0 0 1-1.344 3.375c.068 4.82.171 9.567.406 14.5.45 9.437 2.398 34.972 2.438 35.468 1.169 14.916 1.882 25.55 2.344 34.876.596 1.458 1.283 2.887 1.687 4.406 1.351 5.08 1.668 10.796.906 15.875-.412 2.748-1.163 5.271-2.062 7.719-.257 27.485-2.54 55.612-7.094 92.937-.19 1.556-.532 4.054-.719 5.563 30.753-.45 56.358-1.2 81.125-2.969 23.851-1.704 45.51-3.789 84.844-7.938 1.746-.184 3.12-.322 6.281-.656a4727 4727 0 0 1 49.094-4.937c4.387-1.189 9.78-1.686 16.844-1.813.788-.014 1.985-.02 2.781-.031 14.188-1.241 26.865-2.237 40.375-3.032 2.048-.12 4.149-.153 6.125-.25.094-.01.093-.02.187-.031 5.343-.611 7.67-.896 10.626-1.219 9.889-1.078 17.617-1.77 25.124-2.187 1.09-.061 3.835-.141 6.688-.219-18.908-171.875-153.373-303.997-318.656-325.718M423.188 433.969c-.84.743-1.554 1.396-2.344 2.093.507.009 1.219-.009 1.718 0 .182-.705.406-1.4.626-2.093m59.093 119.719c-58.116.108-87.468.597-121.156 2.468-19.676 1.093-37.984 1.236-68.156.906-2.232-.024-4.03-.046-8.031-.093-10.847-.127-17.022-.044-25.188-.063-2.868.251-4.679.375-9.406.813-16.327 1.51-23.656 2.05-32.844 2.312-6.531.187-11.803.196-23.844.094-5.504-.046-7.989-.06-11.062-.063-15.374-.01-26.344.65-36.656 2.188 22.746 171.205 160.601 301.216 327.718 318.531-.002-.269.002-.328 0-.656-.064-10.934-.135-15.777-.375-21.781-1.391-34.792-1.75-67.085-1.75-123.219 0-1.964 1.152-3.642 2.813-4.437.519-49.353 2.003-91.898 4.968-133.407.989-13.836 2.385-27.497 4.25-43.593z"/></defs><path fill="url(#a)" fill-rule="evenodd" d="M512 119.522c244.578 0 442.847 198.269 442.847 442.847v3.239c0 201.121-134.071 370.927-317.714 424.921-39.681 11.671-81.676 17.931-125.133 17.931-244.578 0-442.847-198.274-442.847-442.852v-3.239c0-244.578 198.269-442.847 442.847-442.847"/><path fill="#5ed698" fill-rule="evenodd" d="M512 66.915c244.578 0 442.847 198.269 442.847 442.847v3.239c0 244.578-198.269 442.847-442.847 442.847S69.153 757.579 69.153 513.001v-3.239C69.153 265.184 267.422 66.915 512 66.915"/><use xlink:href="#b" fill="#4fb681"/><clipPath id="c"><use xlink:href="#b"/></clipPath><g fill-rule="evenodd" clip-path="url(#c)"><path fill="#5ed698" d="M543.923 864.903C738.116 847.337 881.3 675.672 863.734 481.48l-.233-2.573C845.935 284.715 674.27 141.53 480.077 159.097 285.884 176.663 142.7 348.328 160.266 542.52l.233 2.573c17.566 194.192 189.231 337.377 383.424 319.81"/><path fill="#4fb681" d="M537.652 795.58c156.046-14.115 271.104-152.059 256.989-308.105l-.187-2.067c-14.116-156.046-152.06-271.104-308.106-256.988S215.244 380.479 229.359 536.525l.187 2.067c14.116 156.046 152.06 271.104 308.106 256.988"/><path fill="#5ed698" d="M535.924 776.474C681.457 763.31 788.762 634.66 775.598 489.127l-.175-1.927c-13.164-145.533-141.814-252.839-287.347-239.674S235.238 389.34 248.402 534.873l.175 1.927c13.164 145.533 141.814 252.839 287.347 239.674"/></g><path fill="#4fb681" fill-rule="evenodd" d="M529.617 706.754c107.168-9.694 186.186-104.429 176.492-211.597l-.129-1.42c-9.694-107.167-104.429-186.186-211.597-176.491S308.197 421.675 317.891 528.843l.129 1.42c9.694 107.167 104.429 186.186 211.597 176.491"/><path fill="#fff" fill-rule="evenodd" d="M518.449 440.706c39.231 3.549 68.157 38.229 64.608 77.46l-.047.519c-3.548 39.231-38.228 68.158-77.459 64.609s-68.157-38.229-64.608-77.46l.047-.519c3.548-39.231 38.228-68.158 77.459-64.609"/></svg>