<svg xmlns="http://www.w3.org/2000/svg" width="600" height="300"><path d="M199.584 115.92v67.2h11.04v-46.372l35.52 46.371h7.68v-67.2h-11.04v46.37l-35.52-46.37zm72.768 0q-2.688 0-4.512 1.824-1.729 1.824-1.729 4.512t1.729 4.512q1.824 1.824 4.512 1.824 2.784 0 4.511-1.824 1.729-1.824 1.729-4.512t-1.729-4.512-4.511-1.824m187.584.191q-7.007 0-12.96 2.592a32.9 32.9 0 0 0-10.464 7.201q-4.512 4.608-7.008 10.752T427.008 150q0 7.104 2.496 13.344 2.592 6.144 7.103 10.847a34.2 34.2 0 0 0 10.465 7.297q6.049 2.592 13.057 2.592 7.007 0 12.959-2.592 5.951-2.688 10.367-7.297 4.513-4.608 7.01-10.752 2.496-6.24 2.496-13.343 0-7.2-2.496-13.344-2.497-6.24-7.01-10.848-4.512-4.609-10.559-7.2-5.953-2.593-12.96-2.593m64.224 0q-5.76.001-10.271 2.114-4.513 2.016-7.106 5.855t-2.592 9.217q0 5.088 1.729 8.351 1.825 3.263 4.8 5.375a33 33 0 0 0 6.432 3.553 317 317 0 0 0 7.104 2.592q3.552 1.249 6.431 2.88 2.976 1.537 4.801 4.128 1.824 2.495 1.824 6.431 0 5.089-3.935 7.97-3.937 2.879-10.274 2.878-6.144 0-10.656-2.303-4.416-2.303-7.775-7.007l-4.897 4.798q4.225 5.28 9.793 8.256 5.568 2.88 13.248 2.881 9.984 0 15.744-4.703 5.856-4.801 5.856-13.346 0-5.279-1.824-8.638-1.823-3.456-4.8-5.664-2.88-2.209-6.433-3.649a106 106 0 0 0-7.103-2.592 54 54 0 0 1-6.432-2.785q-2.977-1.536-4.8-3.84-1.728-2.303-1.727-6.047-.001-4.8 3.455-7.488 3.457-2.687 9.217-2.687 4.895 0 8.543 1.92t6.72 5.568l4.8-4.8q-3.36-4.226-8.448-6.722-4.992-2.496-11.424-2.496m-64.225 6.721q5.665 0 10.272 2.016a23.7 23.7 0 0 1 8.16 5.76q3.457 3.647 5.377 8.64 1.92 4.896 1.92 10.752 0 7.872-3.36 14.016-3.263 6.144-9.12 9.697-5.76 3.551-13.248 3.55-5.472.001-10.176-2.015t-8.16-5.664q-3.456-3.744-5.375-8.736T434.305 150q0-7.872 3.263-14.016 3.36-6.143 9.12-9.6 5.855-3.551 13.247-3.552M313.249 136.08q-4.896 0-8.832 2.207a15.9 15.9 0 0 0-4.416 3.518v-4.766h-10.56v46.08H300v-27.455q0-3.072 1.344-5.184 1.344-2.209 3.552-3.36 2.304-1.152 5.184-1.151 4.224 0 7.104 2.592 2.88 2.495 2.88 7.103v27.455h10.56v-27.455q0-3.072 1.345-5.184a8.8 8.8 0 0 1 3.646-3.36q2.304-1.152 5.088-1.151 4.225 0 7.106 2.592 2.88 2.495 2.879 7.103v27.455h10.56v-29.76q0-5.375-2.4-9.214a16.45 16.45 0 0 0-6.432-5.954q-4.031-2.111-9.023-2.11-4.897-.001-9.026 2.206c-2.524 1.322-4.607 3.174-6.285 5.512-1.512-2.386-3.503-4.267-6.002-5.608q-3.936-2.111-8.832-2.11m78.145 0q-6.24 0-11.329 3.264-4.992 3.168-7.968 8.64-2.88 5.376-2.88 12.192 0 6.72 2.88 12.191 2.976 5.377 7.968 8.545 5.089 3.168 11.329 3.168 5.28 0 9.408-2.209a17 17 0 0 0 4.703-3.857v5.105h10.56v-46.08h-10.56v5.176a16.9 16.9 0 0 0-4.8-3.83q-4.033-2.305-9.312-2.305m-124.32.96v46.08h10.56v-46.08zm126.046 9.024q3.936 0 6.816 1.825 2.978 1.727 4.61 4.894 1.631 3.168 1.63 7.297 0 6.144-3.648 10.08-3.552 3.936-9.408 3.936-3.839 0-6.814-1.729-2.881-1.823-4.61-4.99-1.631-3.168-1.63-7.297-.001-4.128 1.63-7.297 1.729-3.167 4.61-4.894 2.975-1.825 6.814-1.825M72 94c-8.742 0-16 7.258-16 16v80c0 8.742 7.258 16 16 16h8c8.742 0 16-7.258 16-16v-31.998l28.799 38.398A24.02 24.02 0 0 0 144 206h8c8.742 0 16-7.258 16-16v-80c0-8.742-7.258-16-16-16h-8c-8.742 0-16 7.258-16 16v31.998L99.201 103.6A24.02 24.02 0 0 0 80 94Zm0 8h8a16 16 0 0 1 12.8 6.4L136 166v21.334l-48-64V190a8 8 0 0 1-8 8h-8zm72 0h8a8 8 0 0 1 8 8v80a8 8 0 0 1-8 8h-8v-88z" style="fill:#fff"/></svg>